<svg id="Layer_1" data-name="Layer 1" xmlns="http://www.w3.org/2000/svg" viewBox="0 0 512 512"><defs><style>.cls-1{fill:#3893fa;}</style></defs><title>download</title><path class="cls-1" d="M256,0C114.61,0,0,114.62,0,256S114.61,512,256,512,512,397.37,512,256,397.37,0,256,0ZM189.38,179.81a18.12,18.12,0,0,1,25.63,0l22.69,22.69V106.63a18.13,18.13,0,0,1,36.25,0v97.1l7.9-7.9,16-16a18.11,18.11,0,0,1,30.64,16h0c-.08.41-.2.8-.31,1.2a16.78,16.78,0,0,1-.55,1.85c-.15.41-.32.81-.51,1.2a17.89,17.89,0,0,1-1,1.84c-.19.32-.37.64-.58.94a18.35,18.35,0,0,1-2.09,2.56l-25.8,25.8L269.4,259.54a18.06,18.06,0,0,1-12.81,5.3h-.27a18.06,18.06,0,0,1-12.81-5.3l-28.32-28.32-25.8-25.8a17.75,17.75,0,0,1-2.09-2.55c-.22-.31-.39-.64-.59-1a19,19,0,0,1-1-1.82c-.19-.41-.36-.81-.51-1.23a18.78,18.78,0,0,1-.54-1.8c-.11-.42-.24-.83-.32-1.25A18,18,0,0,1,189.38,179.81ZM395.22,357.23h0c0,24.47-24,43.64-54.62,43.64H171.41c-30.63,0-54.62-19.17-54.62-43.64V239.46c0-20.68,17.17-37.53,41-42.26a44.33,44.33,0,0,0,12.86,27l7,7h-6.21c-12.4,0-19.21,6.18-19.21,8.22V357.23c0,2,6.81,8.22,19.21,8.22H340.6c12.4,0,19.21-6.18,19.21-8.22V239.46c0-2-6.81-8.22-19.21-8.22h-5.32l7-7a44.29,44.29,0,0,0,12.83-26.84c23.35,5,40.1,21.66,40.1,42.09Z"/></svg>