<svg id="Layer_1" data-name="Layer 1" xmlns="http://www.w3.org/2000/svg" viewBox="0 0 538.78 178.81"><defs><style>.cls-1{fill:#fff;}.cls-2{fill:#0b9955;}.cls-3{fill:none;}.cls-4{fill:#194a85;}.cls-5{fill:#9ce214;}</style></defs><title>Footer_art</title><polygon class="cls-1" points="219.95 11.55 222.93 71.83 243.2 84.11 253.27 89.69 275.39 79.92 287.44 69.52 290.46 26.17 290.46 11.55 262.78 4.57 254.75 2.62 236.04 8.2 219.95 11.55"/><path class="cls-2" d="M610,758.47a3,3,0,0,1-.39,1.58l1.19-2a3,3,0,0,0,.39-1.58c0-2.57-2.18-3-4.3-3h-1.41l-1.19,2h1.41C607.82,755.45,610,755.91,610,758.47Z" transform="translate(-362.4 -717.68)"/><path class="cls-2" d="M611.75,768.72h-6.21l-1.19,2h6.21a14.21,14.21,0,0,0,5.52-1,11,11,0,0,0,1.31-.65l.61-.38a9.92,9.92,0,0,0,1.11-.88q.26-.24.5-.49a9.83,9.83,0,0,0,1.28-1.7l1.19-2C620.11,766.88,616.46,768.72,611.75,768.72Z" transform="translate(-362.4 -717.68)"/><polygon class="cls-2" points="229.96 26.17 228.77 28.16 228.93 63.71 242.01 63.71 243.2 61.72 230.12 61.72 229.96 26.17"/><path class="cls-3" d="M633.08,755.23l.1,0Z" transform="translate(-362.4 -717.68)"/><path class="cls-3" d="M633.73,755l.13,0Z" transform="translate(-362.4 -717.68)"/><path class="cls-3" d="M634.42,754.82l.07,0Z" transform="translate(-362.4 -717.68)"/><path class="cls-3" d="M632.5,755.5l.11-.05Z" transform="translate(-362.4 -717.68)"/><path class="cls-3" d="M635.11,754.72h0Z" transform="translate(-362.4 -717.68)"/><path class="cls-3" d="M630.11,757.74l.07-.12Z" transform="translate(-362.4 -717.68)"/><path class="cls-3" d="M631.9,755.87l.1-.07Z" transform="translate(-362.4 -717.68)"/><path class="cls-3" d="M630.52,757.15l0,0Z" transform="translate(-362.4 -717.68)"/><polygon class="cls-3" points="273.53 37 273.53 37 273.53 37 273.53 37"/><path class="cls-3" d="M606.89,753.47h-1.41l0,6.19h1.26c2.12,0,4.44-.6,4.43-3.17S609,753.47,606.89,753.47Z" transform="translate(-362.4 -717.68)"/><path class="cls-2" d="M641.84,756.65a11.18,11.18,0,0,0-1.34-.83,10.36,10.36,0,0,0-.95-.44,9.89,9.89,0,0,0-1-.34l-.51-.13a9.61,9.61,0,0,0-2.13-.24h0c-.22,0-.44,0-.66,0h-.15l-.63.09-.07,0-.55.13-.13,0-.56.2-.1,0-.47.22-.11.05-.49.3-.1.07-.41.31-.07.06c-.15.12-.29.25-.42.39l-.09.09c-.12.13-.24.26-.35.4l0,0c-.12.15-.23.31-.34.47l-.07.12a6.69,6.69,0,0,0-.59,1.18,6.78,6.78,0,0,1,5.22-2.26,10.52,10.52,0,0,1,7.54,3.38l1.19-2q-.38-.39-.79-.74T641.84,756.65Z" transform="translate(-362.4 -717.68)"/><path class="cls-4" d="M631.5,756.17l.41-.31Z" transform="translate(-362.4 -717.68)"/><path class="cls-2" d="M636.19,743.62c0-1.21.15-2.71.85-3.41a10.42,10.42,0,0,1,3.08-2.11c.58-.28,1-.47,1-.84a2,2,0,0,0,0-1c-.24-.3-.76-.14-1.17-.12-1.19.07-2.75,1.58-3.68,3a8.28,8.28,0,0,0-1.28,4.33h-.51c-.63,0-1.24,0-1.86.07a8.27,8.27,0,0,0-1.27-4.14c-.93-1.46-2.49-3-3.68-3-.41,0-.95-.13-1.19.16a1.89,1.89,0,0,0,0,.91c.08.37.47.56,1,.84a10.42,10.42,0,0,1,3.08,2.11,4.89,4.89,0,0,1,.85,3.26q-.75.09-1.48.24h8.72A24.34,24.34,0,0,0,636.19,743.62Z" transform="translate(-362.4 -717.68)"/><path class="cls-5" d="M636.39,768.42c-4,0-7.33-2.62-7.35-6.8a7.46,7.46,0,0,1,.48-2.7,6.69,6.69,0,0,1,.59-1.18l.07-.12c.11-.16.22-.32.34-.47l0,0c.11-.14.23-.27.35-.4l.09-.09c.13-.13.27-.26.42-.39l.07-.06.41-.31.1-.07.49-.3.11-.05.47-.22.1,0,.56-.2.13,0,.55-.13.07,0,.63-.09h.15c.22,0,.44,0,.66,0h0a9.61,9.61,0,0,1,2.13.24l.51.13a9.89,9.89,0,0,1,1,.34,10.35,10.35,0,0,1,.95.44,11.18,11.18,0,0,1,1.34.83q.43.31.84.66t.79.74l-.06-13.6a33.83,33.83,0,0,0-7.21-1.54c0-1.21.15-2.71.85-3.41a10.42,10.42,0,0,1,3.08-2.11c.58-.28,1-.47,1-.84a.79.79,0,0,0-.21-.66,1.15,1.15,0,0,0-1-.42c-1.19.07-2.75,1.58-3.68,3a8.28,8.28,0,0,0-1.28,4.33h-.51c-.63,0-1.24,0-1.86.07a8.27,8.27,0,0,0-1.27-4.14c-.93-1.46-2.49-3-3.68-3a1.14,1.14,0,0,0-1,.42.79.79,0,0,0-.21.66c.08.37.47.56,1,.84a10.42,10.42,0,0,1,3.08,2.11,4.89,4.89,0,0,1,.85,3.26,17,17,0,0,0-8.56,3.4,18,18,0,0,0-2.11,1.88c-3.34-4.11-8.31-4.45-13.46-4.45h-15l.16,35.55h13.08l0-10.68h6.21a14.62,14.62,0,0,0,4.91-.79c2.48,7.51,9.37,12.32,18.12,12.32a29.23,29.23,0,0,0,8.57-1.51l.45-13.34C641.48,767.16,639.47,768.42,636.39,768.42Zm-29.63-8.76H605.5l0-6.19h1.41c2.12,0,4.29.45,4.3,3S608.88,759.66,606.76,759.66Z" transform="translate(-362.4 -717.68)"/><path class="cls-2" d="M615.66,761.62a19.46,19.46,0,0,1,2.69-10.11l-1.19,2a19.46,19.46,0,0,0-2.69,10.11c.05,11,8.11,18.63,19.12,18.63a29.23,29.23,0,0,0,8.57-1.51l1.19-2a29.23,29.23,0,0,1-8.57,1.51C623.77,780.25,615.71,772.65,615.66,761.62Z" transform="translate(-362.4 -717.68)"/><path class="cls-3" d="M606.89,753.95h-1.41l0,6.19h1.26c2.12,0,4.44-.6,4.43-3.17S609,753.95,606.89,753.95Z" transform="translate(-362.4 -717.68)"/><path class="cls-2" d="M617.43,722.56a174,174,0,0,0,16.85,5.26c3.39.73,11.68,2.1,16.68,2.9l-1.22,49a16.61,16.61,0,0,1-6.54,12.11L617.45,805.3l-25.66-13.49a16.61,16.61,0,0,1-6.53-12.1l-1.22-49c5.08-.82,13.58-2.24,17.06-3.11,3.7-.92,12.72-3.86,16.34-5.06m.06-4.89S604.43,722,600,723.14c-4.86,1.21-20.66,3.66-20.66,3.66l1.33,53.13a21.27,21.27,0,0,0,8.67,15.81l28.13,14.78,28.21-14.78a21.27,21.27,0,0,0,8.69-15.82l1.33-53.11s-15.59-2.45-20.42-3.49c-5.8-1.25-17.76-5.63-17.76-5.63Z" transform="translate(-362.4 -717.68)"/><rect class="cls-3" x="133.33" y="147.18" width="4.73" height="6.2"/><rect class="cls-3" x="133.33" y="139.12" width="4.73" height="6.2"/><rect class="cls-3" x="133.33" y="131.06" width="4.73" height="6.2"/><rect class="cls-3" x="133.33" y="155.24" width="4.73" height="6.2"/><rect class="cls-3" x="133.33" y="123" width="4.73" height="6.2"/><rect class="cls-3" x="176.05" y="121.86" width="4.73" height="6.2"/><rect class="cls-3" x="176.05" y="137.98" width="4.73" height="6.2"/><rect class="cls-3" x="182.18" y="137.98" width="4.73" height="6.2"/><rect class="cls-3" x="176.05" y="129.92" width="4.73" height="6.2"/><rect class="cls-3" x="139.45" y="155.24" width="4.73" height="6.2"/><rect class="cls-3" x="182.18" y="121.86" width="4.73" height="6.2"/><rect class="cls-3" x="182.18" y="129.92" width="4.73" height="6.2"/><rect class="cls-3" x="139.45" y="123" width="4.73" height="6.2"/><rect class="cls-3" x="139.45" y="147.18" width="4.73" height="6.2"/><rect class="cls-3" x="139.45" y="131.06" width="4.73" height="6.2"/><rect class="cls-3" x="139.45" y="139.12" width="4.73" height="6.2"/><path class="cls-2" d="M895.89,851.08c.71-.22,2.54-.88,2.54-.88s-1.3.32-2.21.6l-1.33.44.63-.32.51-.21c.65-.28,2.34-1.07,2.34-1.07l-.81.27c2.29-1.11,3.62-1.64,3.62-1.64s-1.85.68-2.79,1a15.62,15.62,0,0,0-2.3,1.11,37.54,37.54,0,0,0,3.3-2.15l1.3-1.13s-1.58.91-2.38,1.41c-.49.3-1.37.93-2,1.36l-.23.13a17.77,17.77,0,0,0,1.92-1.75c.46-.59,1.55-2.18,1.55-2.18s-1.58,1.42-2.14,2c-.36.38-1.09,1.2-1.56,1.74l-.14.09c.4-.55,1.13-1.56,1.55-2.2.6-.91,1.31-2.32,1.31-2.32s-1.37,1.76-1.83,2.47l-1.64,2.46-.34.23a23.12,23.12,0,0,0,1.77-2.81c.6-1.24,1.35-2.53,1.35-2.53s-1.58,2-2,2.6-1.39,2.54-1.67,3.08l-.52.35a22.09,22.09,0,0,0,2.18-4c.47-1.5.7-2.53.7-2.53s-1.11,2-2,3.78-1.51,3.2-1.51,3.2l-1.53.91a13.25,13.25,0,0,0,2.08-3.12c.94-1.93,1.93-4,1.93-4a42.52,42.52,0,0,0-2.7,3.82c-.42.89-1.7,3.52-1.7,3.52l-1,.55a15.27,15.27,0,0,0,1.23-2.18c.61-1.31,2.6-5.4,2.6-5.4s-2.83,4.3-3.23,5.22-1,2.59-1,2.59l-1,.66s.19-.37,1-2.16,2.58-5.83,2.58-5.83a55.06,55.06,0,0,0-3.14,5.69,18.93,18.93,0,0,1-.93,2.43l-1.13.73a11.62,11.62,0,0,0,1.3-2.65c.62-1.72,2.23-6,2.23-6a65.15,65.15,0,0,0-2.85,5.89,27,27,0,0,1-1.06,3l-1,.74a15.76,15.76,0,0,0,1.56-3.7c.48-1.9,1.17-4.48,1.17-4.48a45.38,45.38,0,0,0-1.86,4.8,36,36,0,0,1-1.2,3.62l-.74.32s.28-.57.58-1.39,1.59-6,1.59-6-2.16,4.38-2.2,5.49a9.75,9.75,0,0,1-.37,2.19l-1.08.73a9.75,9.75,0,0,0,1-2.46,49.44,49.44,0,0,0,1-5.12,34.73,34.73,0,0,0-1.71,4.71c-.37,1.68-.74,2.85-.74,2.85l-1.15.81a13.31,13.31,0,0,0,1.27-3,30.56,30.56,0,0,0,1.05-4.36s-1.7,3.57-1.88,4.37-.94,3.22-.94,3.22l-1.18.93-.69.35-.91-1.29.36-.66s3.08-5,8-11.66A118.91,118.91,0,0,1,895.21,836s-1.57,1.57-2.38,2.33a19.87,19.87,0,0,0-1.87,2.22l.39-.55c1-1.2,1.54-1.83,1.54-1.83l-1.06,1.15a28.76,28.76,0,0,0,1.63-2.54c.49-1,.9-1.78.9-1.78s-1.23,1.68-1.85,2.57-1.86,3-1.93,3.1h0l.43-.8c.26-.39.48-.74.61-1l.85-1.53-.68.94a7.89,7.89,0,0,0,.37-.89c.25-.82.8-3,.8-3s-1.07,2.21-1.42,3.08c-.22.55-.65,1.71-.93,2.49l-.11.16.26-.94c.32-.82.84-2.26.84-2.26l-.48.9.17-.67c.29-1.23.52-3,.52-3s-.75,2.47-1,3.43l-.36,1.51-.25.5,0,.05c.13-.56.25-1.14.33-1.66s.34-1.2.34-1.2l-.27.67c.18-1.53.48-3.15.48-3.15s-.64,2.1-.94,3.18l-.39,1a9.44,9.44,0,0,0,.07-1.18c0-1.78-.14-3-.14-3s-.3,1.83-.58,3.76c-.22.75-.51,1.78-.78,2.79,0-.07,0-.13,0-.19.08-.65.15-1.31.22-1.94l.16-.65-.13.31c.18-1.58.31-2.84.31-2.84s-1.26,4.11-1.38,5.24l-.06.52c-.18.51-.33.95-.4,1.2l-.51,2c0-.32.1-.68.14-1.06s.09-.89.16-1.49l.75-2.93s-.28.8-.63,1.82c.23-2,.48-4.23.48-4.23s-1.36,5.8-1.44,6.94c0,.07,0,.15,0,.22-.16.5-.28.91-.33,1.12-.12.52-.26,1.26-.36,1.82,0-.39.08-.9.15-1.58l.07-.82,1-4.19s-.41,1.25-.84,2.64c.19-2.3.41-4.92.41-4.92a72.66,72.66,0,0,0-1.21,7.4c0,.07,0,.14,0,.21a8.19,8.19,0,0,0-.2.9c-.12,1-.49,2.48-.49,2.48l-.21.31a16.59,16.59,0,0,0,.31-2.66c.37-2,1-5.46,1-5.46s-.53,1.89-1,3.61c.07-2.4.19-5.78.19-5.78s-1,6.5-.86,7.47a10.35,10.35,0,0,1,0,1.08c-.08.86-.53,3-.53,3l-.18.3c.07-.46.16-1.17.21-2,.07-.36.13-.73.17-1.09.2-1.84.51-4.35.51-4.35s-.39,1.69-.69,3.15c-.15-2.18-.3-5-.3-5s-.22,2.56-.27,4.42c-.15.61-.38,1.52-.58,2.42-.12-2.06-.3-4.65-.3-4.65s-.3,2.49-.41,4.49c-.11.51-.22,1.09-.32,1.66-.05-.55-.12-1.12-.19-1.68v-.05c-.13-1-.26-1.86-.34-2.35l.39-1.15a118.92,118.92,0,0,1,4.91-12.36s-1,2-1.57,2.94a19.89,19.89,0,0,0-1.11,2.68s1.08-3.27,1.25-4.35.32-2,.32-2-.67,2-1,3-.91,3.56-.91,3.56a32.06,32.06,0,0,0,.53-3.59c0-.86-.14-3.1-.14-3.1s-.35,2.43-.43,3.37-.16,3.47-.16,3.47-.08-2.43-.17-3.69-.42-3-.42-3,0,2.58.1,3.56.29,4.09.29,4.09l-.15.38a36.07,36.07,0,0,0-.38-4.41c-.3-1.55-.52-3.27-.52-3.27s0,3,.08,3.78.64,4.16.64,4.16l-.19.92a32.62,32.62,0,0,0-.83-5.62c-.57-1.69-1-2.78-1-2.78s.37,2.61.78,4.87.81,4,.81,4l-.63,1.94a17.71,17.71,0,0,0-.31-4.32c-.47-2.42-1-5-1-5s0,4.3.26,5.42.85,4.41.85,4.41l-.45,1.23a20.26,20.26,0,0,0-.39-2.87c-.34-1.63-1.33-6.75-1.33-6.75s.46,5.94.72,7.05.85,3,.85,3l-.34,1.3s-.08-.48-.57-2.66c-.33-1.49-1-4.26-1.33-5.87.52-2.68.85-4.11.85-4.11s-.42,1.69-.64,2.51c-.1.36-.2.85-.28,1.3h0c.19-1,.29-1.46.29-1.46l-.28,1.23c.14-.93.31-2.1.36-2.68.09-1,.16-1.86.16-1.86s-.29,1.78-.43,2.72c-.06.38-.14,1-.21,1.58v0l0-.14c.09-.88.17-1.6.17-1.6l-.16,1c0-.37,0-.71.05-.93,0-.85,0-3.08,0-3.08s-.19,2.31-.24,3.21c0,.57-.08,1.78-.11,2.58l0,.17c0-.27,0-.6,0-1,0-.85.1-2.34.1-2.34l-.09.94c0-.25,0-.49,0-.69,0-1.26-.07-3.1-.07-3.1s-.06,2.55-.05,3.53c0,.34,0,.92,0,1.55,0,.2,0,.38,0,.52v.06c0-.58,0-1.17,0-1.7,0-.68,0-1.24,0-1.24l0,.69c-.07-1.57-.1-3.22-.1-3.22s0,2.17-.06,3.28l-.05,1c0-.45,0-.86-.07-1.19-.16-1.8-.3-3-.3-3s0,1.87.12,3.84c0,.77,0,1.82,0,2.85h0c0-.06,0-.11,0-.17l-.09-2c0-.4,0-.67,0-.67l0,.32c-.07-1.61-.13-2.89-.13-2.89s-.06,2.64-.06,4.32v0c0,.44,0,.82,0,1.06l0,.53c0,.52,0,1,0,1.24,0,.44,0,1.27,0,2,0-.33,0-.69,0-1.08s0-.91-.07-1.52c0-1.53,0-3,0-3s0,.83-.07,1.88c-.09-2-.19-4.31-.19-4.31s0,6,.08,7.12v.31l-.12-.32c0-1.76,0-3.5,0-3.5s0,1.29-.07,2.73c-.13-2.34-.27-5-.27-5s0,2.85.1,5.09l-.06-.16,0-1.65s0,.65,0,1.53l0-.1,0,.16c0,.64,0,1.39,0,2.13-.18-2.43-.42-5.87-.42-5.87s.15,4.67.27,6.75l0-.08c-.05-1.21-.09-2.21-.09-2.21s0,.92,0,2l-.16-.4c-.18-1.76-.35-3.4-.35-3.4s.14,2.6.28,4.49c0,.59,0,1.45,0,2.31l0,0c-.21-2-.48-4.47-.48-4.47s.05,1.32.13,2.82c0,.2-.07.45-.11.74l-.07-.14c0-.33,0-.67,0-1v-.09c0-.7.07-1.22.07-1.22l-.09.52c-.11-4.34,0-6.71,0-6.71s-.06,1.15-.1,1.72,0,1.62,0,1.62,0-.15,0-.38c0-.87,0-1.35,0-1.35s0,.41,0,.84c0-.64-.07-1.44-.11-1.83-.07-.7-.13-1.27-.13-1.27s0,1.22.07,1.86.14,2.14.15,2.23h0s0-.25-.05-.57,0-.53,0-.69c-.05-.6-.1-1.1-.1-1.1s0,.31,0,.68c0-.26-.06-.49-.08-.64-.1-.58-.38-2.11-.38-2.11s.17,1.58.26,2.2c.05.39.18,1.22.26,1.77v.12l-.12-.66c-.08-.58-.23-1.6-.23-1.6l.06.65-.09-.47c-.16-.86-.45-2.12-.45-2.12s.29,1.75.42,2.42l.2,1.06,0,.35v0c-.08-.39-.16-.79-.23-1.15s-.15-.86-.15-.86l.06.47c-.25-1.07-.48-2.21-.48-2.21s.25,1.49.38,2.25l.1.7c-.07-.31-.14-.59-.2-.82-.34-1.24-.59-2.05-.59-2.05s.27,1.28.57,2.63v.07l0,.33-.07-.38,0,.22-.46-2s.25,1.51.46,2.65l0,.28-.08-.46.08.52v.19l-.38-1.66c0-.28,0-.45,0-.45l0,.36-.14-.62.14.72,0,.92-.17-.72.17.83,0,1-.1-.4.06-.56-.1.43,0-.13v0l-.07-.26c0-1.22-.05-2.39-.05-2.39s-.05,1.61-.1,3.06c-.06-.73-.11-1.3-.11-1.3s0,1,.08,2.11v.26l-.09.41v-.25c0-.18,0-.5-.07-.86v-.38c0-.82-.16-3.76-.16-3.76s0,.91-.07,2.05l0-.22,0,.47c0,.45,0,.93,0,1.4,0,0,0,.09,0,.14,0-.72-.07-1.46-.1-2,0-1.39,0-2.71,0-2.71s-.12.86-.24,2.16c0,.24,0,.54-.05.85l0-.33v0l0-.35c0-.78-.13-2.28-.13-2.28s0,1.17,0,2.27l-.05-.48s0,.4,0,.88,0,.72,0,1.09v0l-.06-.34c0-.44,0-.85,0-1.08,0-.69-.13-2.46-.13-2.46s0,1.3,0,2.18c0,.14,0,.31,0,.48l-.12-.64s.1,1,.16,1.62c0,.25,0,.48,0,.67l0-.11c-.05-.55-.13-1.39-.17-1.78-.07-.62-.31-2.19-.31-2.19s.06,1.56.09,2.15c0,.15,0,.38.08.64l-.18-.66.21,1.08c0,.16.09.41.16.68l.1.57h0c0-.09-.34-1.58-.5-2.18l-.14-.51c0-.53,0-.88,0-.88l-.09.64-.3-1.06s.1.57.21,1.26l0,.17-.08.55c-.24-.55-.54-1.23-.54-1.23s.19.47.51,1.38c-.24,1.66-.6,4.06-.77,5.09a20.29,20.29,0,0,0-.26,2.88l-.51-1.21s.48-3.32.65-4.44,0-5.42,0-5.42-.41,2.64-.77,5.08a17.72,17.72,0,0,0-.12,4.33l-.71-1.91s.33-1.73.63-4,.55-4.9.55-4.9-.41,1.11-.9,2.82a32.61,32.61,0,0,0-.58,5.65l-.23-.91s.43-3.39.45-4.18-.09-3.78-.09-3.78-.13,1.73-.37,3.29a36,36,0,0,0-.18,4.42l-.17-.37s.08-3.11.11-4.1-.06-3.57-.06-3.57-.24,1.8-.28,3.06,0,3.69,0,3.69-.2-2.53-.32-3.45-.58-3.34-.58-3.34,0,2.24,0,3.1a32.05,32.05,0,0,0,.69,3.56s-.71-2.5-1.08-3.52-1.12-3-1.12-3,.19.88.41,2,1.45,4.29,1.45,4.29a19.86,19.86,0,0,0-1.23-2.63c-.59-.95-1.7-2.87-1.7-2.87s1.63,3,3.91,8.32c0,.26-.28,2.88-.51,4.94-.23-1.48-.55-3.18-.55-3.18s.2,2.52.33,4.37c0,.36.07.73.12,1.1,0,.83.08,1.54.13,2l-.17-.3s-.36-2.11-.4-3a10.32,10.32,0,0,1,.08-1.07c.15-1-.54-7.5-.54-7.5s0,3.39-.06,5.79c-.38-1.74-.83-3.65-.83-3.65s.52,3.51.81,5.5a16.6,16.6,0,0,0,.2,2.67l-.2-.32s-.3-1.51-.38-2.5a8.15,8.15,0,0,0-.17-.91c0-.07,0-.14,0-.21a72.74,72.74,0,0,0-.89-7.44s.1,2.62.2,4.93c-.37-1.41-.73-2.68-.73-2.68l.79,4.23,0,.82c0,.69.06,1.19.08,1.59-.08-.57-.19-1.31-.28-1.84,0-.21-.14-.63-.28-1.13,0-.07,0-.15,0-.22,0-1.15-1.15-7-1.15-7s.16,2.24.3,4.25c-.3-1-.55-1.84-.55-1.84l.62,3c0,.6.08,1.14.1,1.5s.06.74.09,1.07l-.42-2c-.05-.26-.18-.71-.35-1.22l0-.52c-.08-1.13-1.16-5.3-1.16-5.3s.08,1.26.19,2.85l-.11-.32.13.66c0,.63.09,1.29.14,1.95,0,.07,0,.13,0,.19-.23-1-.48-2.06-.66-2.82-.19-1.94-.41-3.78-.41-3.78s-.16,1.17-.27,3a9.51,9.51,0,0,0,0,1.18l-.35-1c-.25-1.09-.8-3.22-.8-3.22s.23,1.63.34,3.17l-.24-.68s.12.55.29,1.22c.06.51.15,1.1.26,1.67l0-.06-.23-.51-.29-1.52c-.18-1-.83-3.47-.83-3.47s.15,1.81.39,3c0,.2.09.43.14.68l-.44-.92s.46,1.47.74,2.29l.22.95-.1-.16c-.25-.79-.62-2-.82-2.53-.32-.88-1.29-3.14-1.29-3.14s.46,2.2.67,3a7.87,7.87,0,0,0,.33.91l-.64-1,.78,1.56c.12.24.33.6.57,1l.39.82h0c-.07-.13-1.24-2.29-1.8-3.18s-1.74-2.65-1.74-2.65.38.82.82,1.82a28.68,28.68,0,0,0,1.52,2.61l-1-1.19s.53.65,1.46,1.9l.37.56a19.84,19.84,0,0,0-1.77-2.3c-.78-.8-2.28-2.43-2.28-2.43a118.92,118.92,0,0,1,8,10.66c4.67,6.89,7.53,12,7.53,12l.33.68-.09.48-1.91-1.13c-.27-.51-1.3-2.5-1.61-3.22s-2.91-4.5-2.91-4.5a37,37,0,0,0,2,4.54l.1.18c-.27-.33-.68-.81-1.11-1.29a49.64,49.64,0,0,0-2.6-4.41s.42,1.23,1,2.59l0,0,0,.08c.2.52.41,1.05.63,1.55-.35-.44-.72-.89-1.06-1.28-1-1.68-2.47-3.69-2.47-3.69s1.07,2.33,1.94,4.16c-.59-.68-1.22-1.36-1.64-1.82-.92-1.59-2.32-3.69-2.32-3.69s1.2,2.5,2.1,4.45c-.94-1.13-2.08-2.4-2.08-2.4s1.45,2,2.5,3.52c.21.3.43.58.66.86.43.69.85,1.26,1.13,1.62l-.3-.17s-1.37-1.59-1.85-2.3a10.27,10.27,0,0,1-.48-1c-.36-.89-4.27-6.05-4.27-6.05s1.7,2.87,2.89,4.91c-1.2-1.27-2.55-2.65-2.55-2.65s2.22,2.69,3.48,4.23a16.38,16.38,0,0,0,1.52,2.15l-.33-.17s-1-1.12-1.59-1.91a8,8,0,0,0-.6-.68l-.09-.18a71.62,71.62,0,0,0-4.53-5.82l2.68,4.05c-1-1-2-1.89-2-1.89l2.82,3.16.45.67.87,1.3c-.36-.44-.82-1-1.17-1.4-.14-.16-.44-.46-.81-.81l-.12-.18c-.61-.95-4.52-5.32-4.52-5.32l2.41,3.43-1.4-1.27,2,2.18.84,1.21c.21.31.42.6.62.85l-1.38-1.48c-.18-.19-.51-.5-.91-.85l-.3-.42c-.64-.92-3.67-3.88-3.67-3.88l1.61,2.3-.26-.21.45.48,1.11,1.57.11.15c-.71-.74-1.45-1.5-2-2-1.15-1.54-2.27-3-2.27-3s.46,1.07,1.28,2.62a9.36,9.36,0,0,0,.62,1l-.81-.67c-.77-.79-2.31-2.31-2.31-2.31s1,1.26,1.9,2.5l-.55-.45s.39.41.88.89c.31.4.68.84,1.05,1.26l0,0-.45-.31-1-1.13c-.65-.72-2.46-2.5-2.46-2.5s1,1.45,1.88,2.37l.46.5-.84-.55s1.14,1,1.79,1.56l.66.69-.17-.09c-.61-.54-1.52-1.34-2-1.71-.71-.58-2.68-2-2.68-2s1.5,1.62,2.11,2.21a7.78,7.78,0,0,0,.74.6l-1-.49,1.45.92c.22.14.58.34,1,.55l.74.49h0c-.12-.07-2.21-1.3-3.13-1.76s-2.81-1.35-2.81-1.35l1.62,1.11a28.24,28.24,0,0,0,2.61,1.43l-1.46-.49s.78.28,2.2.85l.6.29a19.55,19.55,0,0,0-2.67-1c-1.06-.28-3.16-.89-3.16-.89a117.11,117.11,0,0,1,12.13,4.94c7.44,3.44,12.45,6.28,12.45,6.28l.58.37V862L869.22,861a3.79,3.79,0,0,0-2.19-1.35l1,.6,1,.69-.65-.11a4.89,4.89,0,0,0-3.15-1.26c-2-.09-2,.09-2,.09s1.92.25,2.54.43c.82.25,2.31.82,2.31.82l-.59.07a14.72,14.72,0,0,0-3.05-.94,20.19,20.19,0,0,0-2.36-.12s1.9.49,2.39.65,2.58.5,2.58.5l-.46.11a16.1,16.1,0,0,0-3.58-.42c-1.23.07-2,.1-2,.1a20.4,20.4,0,0,0,3.06.47c1.11,0,2.34-.06,2.34-.06a19.4,19.4,0,0,0-3.51.72c-2,.66-1.81.75-1.81.75s1.25-.13,2.09-.33,3-1,3-1-1.8.83-2.65,1.26a5.41,5.41,0,0,0-1.6,1.48s1.51-.89,2.11-1.27,2-1.36,2-1.36a3.37,3.37,0,0,0-1,1.44,8.23,8.23,0,0,0-.36,1.31s.53-.73,1-1.47a5.87,5.87,0,0,0,.59-1.37l.31,0a2.94,2.94,0,0,0-.42,1.39,11.94,11.94,0,0,1-.06,1.42,15.39,15.39,0,0,0,.81-1.7,3.23,3.23,0,0,0-.06-1.19l.39-.09s-.11.63-.19,1.51c0,.1,0,.18,0,.27a1.74,1.74,0,0,0-.22.71l.19-.22c0,.41,0,.66,0,.66a9,9,0,0,0,.56-1.31,4.7,4.7,0,0,0,.52-.76c.22-.47.46-.95.46-.95l.47.08a8.43,8.43,0,0,0-.74,1.73,6.08,6.08,0,0,1-.41,1.19,9.21,9.21,0,0,0,1.16-1.8c.25-.7.33-1,.33-1l.68.37a2.07,2.07,0,0,0-.74.81c-.35.62-.54,1-.54,1a4.85,4.85,0,0,0,.95-1,2.72,2.72,0,0,0,.46-.76l.45.3.44.36.47.78-.07.83.5.61.59,2,.89.86S872.06,883,872,888c0,2.59-.11,4.35-.16,5.51a105.74,105.74,0,0,1-14.65-3.92c-2.27-.82-5.51-2.09-9.54-3.6L839.1,819.6h1.3l-2.78-14.51a9.5,9.5,0,0,0,3.53-1.41L849.51,816l6.37-6.13-12.24-8.59a9.5,9.5,0,0,0,1.65-3.76l14.7,2.57,0-8.84-14.69,2.82a9.5,9.5,0,0,0-1.74-4.07l12.22-8.51-6.35-6.15-8.4,12.29a9.49,9.49,0,0,0-3.21-1.32l2.54-14.82h-8.84l2.88,14.75a9.48,9.48,0,0,0-3.63,1.36l-8.39-12.27-6.35,6.15L828.26,790a9.51,9.51,0,0,0-1.72,3.8l-14.61-2.51v8.84l14.56-2.85a9.5,9.5,0,0,0,1.72,4.07L816,809.91l6.37,6.13,8.36-12.31a9.49,9.49,0,0,0,3.36,1.36l-2.54,14.49h1.87l-2.1,20.34-16.84,14.87V837.39L794.1,854.22V837.39l-19.35,13.46v17.88l-8-.61v-33h8V831.6l-19.09-6.84-4.4-87.37-11.31.37-2.05,80.64-13.94-5-2.53-48.78-8.86,0-2,43.94-19.18-6.87-87.94,31.11V837h8.3v24.54c-17.89.77-29.12,3.24-42,8.64-.22.09-12.65,7.91-12.83,8.07-10,8.38-11.25,18.25-11.25,18.25H892.44c-4-.4-8.71-1-13.57-1.74,0-1.09,0-3-.1-6.11-.14-4.79-.9-18.43-.9-18.43l.06-3.28.18-1,.6-.67.07-.17.26-.41-.29-.77.53-.53-.58-.85.53-1.2.73,0a2.69,2.69,0,0,0,.48.83,8.39,8.39,0,0,0,1.13,1.26s-.17-.4-.53-1.06a3.42,3.42,0,0,0-.87-1l1.06.14a7.62,7.62,0,0,0,.23.93,4.15,4.15,0,0,0,.93,1.35s.09.21,0-.46a6.57,6.57,0,0,0-.65-1.7l.69.22a1.37,1.37,0,0,0,.07.88,9.32,9.32,0,0,0,1,1.44s.34-.33,0-1.11a2.56,2.56,0,0,0-.69-1.07l.39.18.58.28a1.71,1.71,0,0,1,.07.77c0,.5.66,1.47.66,1.47s.24-.12.06-1a2.58,2.58,0,0,0-.31-1l.54.3a5.94,5.94,0,0,0,0,1.12,3.4,3.4,0,0,0,.65,1,1,1,0,0,0,.25-.6,2.61,2.61,0,0,0-.54-1.34l.43.21a12.57,12.57,0,0,0,.68,1.4,2.85,2.85,0,0,0,1.13,1.12s.1-.19-.66-1.22l-.84-1.1s1.05.93,1.82,1.56a9.28,9.28,0,0,0,1.55,1,5.54,5.54,0,0,0-1.45-1.37c-1.13-.82-2.06-1.37-2.06-1.37a21,21,0,0,0,2.09,1,8.46,8.46,0,0,0,2.64.82,13.41,13.41,0,0,0-2-1c-1.16-.48-1.91-.76-2.39-.93.39.12.86.26,1.14.32a12.12,12.12,0,0,0,2.66.26,12.7,12.7,0,0,0-2.87-.77c-1.06-.14-.77-.05-1.92-.23l-.8-.41s1.19.28,1.9.38a3.34,3.34,0,0,0,1.69-.07,13.76,13.76,0,0,0-1.89-.37c-1.06-.15-.92-.09-2.17-.22l-.83-.4s.64.14,1.83.32a17.41,17.41,0,0,0,2,.18,7.34,7.34,0,0,0-2.63-.63c-.9-.07-1.53-.08-1.53-.08l-1-.31,1.21.06.91-.16a5.07,5.07,0,0,0-2.47,0l-2.06-.19.12-.4.85-.69s.5-.35,1.41-1c.5-.07,2-.28,2.51-.33s3.9-.81,3.9-.81-1.65.07-3.54.36a24,24,0,0,0-2.4.47l.75-.49.05,0s1-.14,2.34-.26,4.07-.7,4.07-.7-2.63.09-4,.28a16.87,16.87,0,0,0-1.82.33l.75-.48a10.7,10.7,0,0,1,1.59-.08,43,43,0,0,0,4.83-.93s-4.2.44-4.91.57-1.1.22-1.2.24l.65-.41c.47-.09,2.08-.37,2.93-.45,1-.09,4.2-.78,4.2-.78l-3.67.42a22.18,22.18,0,0,0-3.17.63l.35-.21.48-.25s1.91-.38,2.59-.43,5.4-1.27,5.4-1.27l-5.19.92a17.47,17.47,0,0,0-2.44.58l1-.59s1.28-.29,2.12-.39,5.38-1.44,5.38-1.44l-5.24,1.12c-1.61.35-2,.44-2,.44l.88-.49s1.43-.23,2.25-.4,5.08-1.51,5.08-1.51l-4.94,1.15c-1.19.27-2.08.57-2.08.57l.45-.29.45-.26,3.15-.74c.81-.19,3.87-1.29,3.87-1.29l-3.69.86a22,22,0,0,0-2.77.85l.09-.05,1.2-.67c.47-.1,1.43-.31,2.6-.6,1.65-.4,3.54-.91,3.54-.91s-.83.07-2.09.26a28.89,28.89,0,0,0-3.29.84l.42-.23c.76-.19,2.06-.52,2.45-.65.56-.18,2.69-.94,2.69-.94s-1.24.35-2.37.61c-.58.14-1.4.39-2.06.6l.32-.17Zm-.35-.92,0,0h0l-.14.16Zm-1,.69.37-.25-.06.09-.34.2Zm-5.17-8.94-.27.42.27-.47Zm.48-.33-.26.35v0l.27-.38Zm.17-.69-.25.4.05-.2.27-.5Zm-.49-1.11v0c.11-.44.24-.89.35-1.3-.07.38-.15.88-.23,1.4l-.31.87C889.44,840.41,889.49,840.1,889.55,839.78Zm-.42,2.19.41-1.08,0,.33-.39.87Zm-.6,1.16-.2.26.23-.62Zm.19-2-.06.53c-.27.94-.53,1.92-.53,1.92l-.42.71S888.29,842.6,888.71,841.11Zm-1.55,2.9-.13,1.07-.67.94A19.82,19.82,0,0,0,887.16,844Zm-1.23,1.63c0,.42,0,.76,0,1l-.49.66S885.66,846.6,885.93,845.64Zm-1.11,1.77c0,.43-.06.75-.07.83l-.23.35S884.59,848.35,884.82,847.41Zm-1.17,1.94c0,.15,0,.27,0,.38l-.2.3S883.51,849.78,883.64,849.35Zm-1,2.32-.1.11.1-.14Zm0-.41-.14.23s.06-.2.15-.51Zm-.52-.48c.11-.73.33-2.57.48-3.94,0,.18,0,.36,0,.49.06.62.06,1.49.05,2.3-.18,1.09-.4,2.2-.4,2.2l-.24.28C882.08,851.86,882.12,851.39,882.14,850.79Zm-1.06,2.13c.09-.39.18-.89.27-1.5,0-.24.06-.52.09-.81a10.39,10.39,0,0,1,.19,1c0,.68-.11,1.24-.11,1.24l-.52.79C881,853.47,881.06,853.23,881.09,852.92Zm-21-11.43.25.51,0,.21-.24-.41Zm.2,1v-.05l.25.39v0Zm.1-3.14c.1.41.2.87.3,1.31v0c0,.32.08.64.13.94l-.27-.89C860.53,840.24,860.47,839.73,860.42,839.35Zm.37,3.49v0l.25.48Zm-.07-.71,0-.33.36,1.1,0,.12Zm.89,2v-.36l.21.63Zm.38.45s-.22-1-.45-1.94c0-.17,0-.35,0-.54.35,1.51.88,3.2.88,3.2Zm1,1.56-.08-1.08a19.84,19.84,0,0,0,.71,2Zm1.06,1.56c0-.2,0-.54,0-1,.23,1,.44,1.64.44,1.64Zm1.09,1.69c0-.08,0-.4,0-.83.19,1,.24,1.19.24,1.19Zm1.06,1.54c0-.11,0-.23,0-.38.11.44.19.69.19.69Zm-14.71-1.65c.29.3.61.63.92,1l0,0,.59.73-.68-.61C852.05,849.94,851.75,849.54,851.51,849.25Zm1,2.18-.21-.23.47.3.14.15Zm1.3.5.08.09-.75-.57-.19-.26Zm-.83,0,0,0,.42.2h0Zm.57.06,0,0,.46.28Zm1.33.64-.19-.29.49.42Zm.55.19-1.37-1.41-.3-.44c1.07,1.09,2.37,2.25,2.37,2.25Zm1.66.79-.61-.87a19.56,19.56,0,0,0,1.63,1.37Zm1.69.78-.47-.82c.69.71,1.21,1.15,1.21,1.15Zm1.78.87-.45-.69c.64.71.81.88.81.88Zm1.68.75-.19-.32c.32.31.51.48.51.48Zm1.41.64.37.37-.23-.13Zm.35.58,0,0,.15.07Zm.38,0s-.72-.86-1.39-1.72c-.39-.69-.79-1.45-1-2-.05-.12-.13-.27-.21-.44.79,1.12,1.84,2.61,2.28,3.19s.56.9.7,1.11Zm1.15.53s-.34-.45-.68-1a10.09,10.09,0,0,1-.32-1c.16.24.32.46.46.66.36.48.68.87.94,1.17s.3.45.42.61Zm1.52.61c-.13-.25-.42-.82-.79-1.63a19.3,19.3,0,0,0,2,2.3Zm.48,3.47a4.86,4.86,0,0,0-.08-.69l.41,0,.27,0A4.51,4.51,0,0,0,867.57,861.85ZM707.91,849.29H693.82v-6.5h14.09Zm22.39,0H716.21v-6.5h14.09ZM845,878.69H834.18v-6.14h10.05Zm-1-7.79h-9.84v-6.14h9.05Zm-1-7.79h-8.84V857h8.05Zm-1-7.79h-7.84v-6.14h7.05Zm-1-7.79h-6.84V841.4h6.05Zm-3-23.37h-3.41l.47-4.58h2.35ZM828,795.7a7.91,7.91,0,1,1,9,7.82l-.62-4.82a3.07,3.07,0,1,0-.83,0l-.5,4.85A7.92,7.92,0,0,1,828,795.7Zm6.44,30.12h3.79L839,832H833.8Zm-.81,7.79h5.6l.79,6.14h-5.84v-2.35l-1,.91Zm.54,47.56v-.83h11.05l.64,5C842.45,884,838.53,882.62,834.18,881.17ZM874.5,846.6l0,.16V847l-.05-.26Zm-.07.7,0-.15.09.46v.12Zm.06.77v.08l0-.26v-.09Zm-1.29-6.45-.06-.21c0-.37,0-.75,0-1.11l.29,1.39v.12l-.11-.52.1.58,0,.47-.14-.52c0-.65-.06-1.13-.06-1.13S873.2,841.07,873.2,841.63Zm.24,3.49,0,.14v.12c0,.15,0,.31,0,.46l-.1-.32Zm-.18,1.51c0,.31,0,.49,0,.49l-.05-.21Zm0-4.4.09.42,0,.64C873.3,842.92,873.29,842.56,873.27,842.23Zm.08,3.59.1.41c0,.15,0,.28,0,.42l-.08-.28C873.35,846.19,873.35,846,873.36,845.82Zm.07,1.13c0,.27,0,.48,0,.66l0-.21s0-.33,0-.75Zm.26,2.6.22.86c-.31.77-.59,1.54-.78,2.14a12.62,12.62,0,0,0-.6,3l-.46-1.43a11.79,11.79,0,0,1,1-2.28A10.07,10.07,0,0,0,873.68,849.55Zm-.19-4.66h0Zm0,3.06v-.06Zm.09-.81c0-.11,0-.22,0-.34v-.06l.13.49v.05l0,.14Zm0,.52v0Zm.08-4.2-.08-.31v-.35l.11.59Zm0,.54v0Zm0,.16,0,.21,0-.06v0l0-.17Zm0,2.19h0l0-.35.09.35v.36Zm.07-.74,0-.26,0,.22v.26Zm0-2.32-.15-.71v-.21l.18.83Zm.06,1.6v0Zm0,4.23s0-.06,0-.15l.05-.26.1.4v0c0,.22,0,.4,0,.54Zm.11-3.31h0Zm0,2.6,0-.1,0-.17C874,848.23,874,848.32,874,848.41Zm-.07-3.44v-.13l.06.21,0,.14v.13Zm0-1,0-.21c.05.22.09.39.13.5l0,.15,0,.1,0,.27Zm.11-.39-.06-.34,0-.27V843l0,.15c.06.35.11.64.14.79v0l0,.12Zm.15,6.14,0,.08,0,.11Zm-.05-6.79-.11-.49v-.17l.21,1.14v0Zm.1,3h0v0Zm0,.89v0h0v0Zm0-1.38,0-.27.09.43,0,.12Zm0-.83v-.08l.15.71Zm.07-.2.1.39,0,.33C874.4,844.95,874.36,844.7,874.31,844.42Zm.17.25s-.06-.53-.19-1.35v0l.16.69Zm0-3.23c0,.1,0,.18,0,.25h0v-.24Zm0,.25,0,.31,0-.34Zm0,.88v.19l-.06-.44Zm-.08-1.61,0,.29,0-.14,0-.36Zm-.06.24.08.62,0-.08-.11-.77Zm.13,1.69,0,.51-.13-.84v0c-.06-.4-.15-.89-.23-1.36l.09.38Zm-.35-2.65.09.62-.14-.66v0c-.06-.31-.11-.63-.16-.92Zm-.44-1.06c.09.52.21,1.21.33,1.88l0-.13-.31-1.33Zm0,1.06c.06.34.12.63.16.81l.08.36.07.49,0,.25-.06-.27-.24-1.29Zm0,.48.06.38-.06-.27Zm0,.56c.1.5.19,1,.27,1.3l0,.19-.25-1.29Zm0,.33.15.88-.15-.63Zm0,.67v0Zm0,.31v.4l0-.06C873.54,842.81,873.54,842.69,873.55,842.58Zm0,.75,0,.08v0l0-.08Zm0,.21v.42l0-.05c0-.14,0-.29,0-.46Zm0-2.69V841l-.07-.38.07.43,0,.35-.31-1.29c0-.42,0-.8,0-1.1Zm-.35.83.06.26c0,.3,0,.64,0,1l-.07-.26C873.14,842.34,873.14,842,873.15,841.67Zm0,1.15.08.32c0,.28,0,.55,0,.81l-.11-.39C873.11,843.37,873.12,843.12,873.13,842.81Zm0,.92s0-.07,0-.1l.12.51q0,.26,0,.48l0,.28,0,0-.1-.3s0-.07,0-.11,0-.36,0-.65Zm0,1.53c0-.18,0-.36,0-.54l.07.3Zm.08,1.29v0Zm-.13.52.34,1.27c-.5,1.49-1,3-1.12,3.51-.23,1-.33,1.69-.33,1.69l-.42-.81s.62-2.83,1.12-4.19A14.61,14.61,0,0,0,873,847.06Zm-.08-1.39,0-.42v.32Zm0-5.11.11.47,0,.92c0-.45-.06-.88-.08-1.22Zm0-.16v0Zm0,.56,0,.78,0-.09,0,.11,0,1.32,0,.59c0,.5,0,.86-.05,1.15,0-.41,0-.94,0-1.31,0-.15,0-.45,0-.8v-.16c0-.19,0-.58,0-1Zm0-.69v.23l-.06.27c0-.27,0-.54,0-.81Zm-.16,3.73c0,.69.08,1.16.08,1.16l-.14-.46Zm-.22,0,0,.26,0-.17Zm-.09.68.41,1.45-.54,1.6a20.43,20.43,0,0,0-.88,4.51L871,850.9a34.33,34.33,0,0,1,.89-3.53A19.48,19.48,0,0,0,872.37,844.71Zm-.4-3.91c.05,1.07.16,2.27.16,2.27l-.11-.5s0-.7-.07-1.38Zm-.05,1.21,0,.44-.06-.18Zm-.21-3V839c0,.28,0,.57,0,.87v0c0,.23,0,.46,0,.67l-.05-.62C871.7,839.59,871.71,839.28,871.71,839Zm0,1.65.08.77v.08l-.08-.62Zm0,.71.07.33-.07-.3Zm-.12-.1,0,.14h0l0-.14Zm-.89-2.81c.09.37.2.79.29,1.17l-.31-.79Zm0,.37s.17.47.44,1.28l.1.37a13.86,13.86,0,0,0-.53-1.55v-.1Zm-.33,5.23c.13-.67.24-3.05.31-4.87.18.53.4,1.17.64,1.92-.28,1.56-.62,3.47-.82,4.62-.39,2.21-.44,2.69-.44,2.69l-.37-1.19v-.2C869.74,846.65,870.14,845.06,870.32,844.08Zm-3.21,8.8v0l.09.14Zm0-.41c0-.08,0-.18,0-.28.07.31.13.52.13.52Zm.34.6s-.18-1.12-.31-2.22c0-.81.07-1.68.15-2.3,0-.14,0-.31,0-.49.1,1.38.23,3.22.31,4s0,1.08,0,1.34Zm-.08-6c0-1.75-.07-4.11-.08-4.39.33.77.67,1.58,1,2.45-.08.7-.3,2.71-.47,4.38C867.69,848.63,867.51,847.71,867.38,847.1Zm.8,7s-.06-.57-.06-1.25a10.3,10.3,0,0,1,.23-1c0,.29,0,.57.06.82.06.61.13,1.11.2,1.51s0,.55,0,.75Zm.9-4.72c-.1.55-.19,1.13-.27,1.67-.07-.57-.17-1.15-.25-1.67,0-1.53-.13-3.33-.19-4.11l.48,1.2.51,1.31c-.09.45-.19,1-.29,1.54v0S869.08,849.35,869.08,849.41Zm.1,6.05c0-.28.07-.93.17-1.83a19.6,19.6,0,0,0,.54,3Zm.69-2.16c0,.08,0,.14,0,.21-.06-.43-.17-1.06-.29-1.71.09-1,.1-2.2.09-3.23l.53,1.39C870.07,850.87,869.93,852,869.87,853.3Zm.47-4.39A24.31,24.31,0,0,1,871,846a30.32,30.32,0,0,0,.51-4.16c.18.58.38,1.21.58,1.9-.29,1.23-.58,2.47-.77,3.26a15.25,15.25,0,0,0-.48,3.36l-.3-.88c0-.71-.07-1.21-.07-1.21s0,.25-.12.65Zm2.21,9-1.17,1.37-1-1.91c0-.58.18-2.86.29-3.65a22.07,22.07,0,0,0,0-2.61c.93,2.53,1.66,4.64,2.16,6.15Zm1.55-4.18,0,.14-1,2.58-.18-.6s.38-1.34,1.05-3.16c.09-.26.19-.55.28-.87l.18.78C874.32,853,874.2,853.34,874.1,853.73Zm.33-2.41,0-.26v0c0,.18,0,.33,0,.43s0,.29.05.47Zm.12-3.84-.06-.39.07.26v.13Zm.33-1.51,0,.39,0-.07Zm0,2.1-.08-.65,0-.42.12.46q0,.23,0,.46Zm.19,4.94h0l0-.17,0,.32Zm.13-3.1,0-.37c0,.18.06.37.09.55Zm5.27,4.26-.76,1.18a19.59,19.59,0,0,0,.67-3C880.44,853.22,880.46,853.88,880.47,854.16Zm-.12-8.07a43.29,43.29,0,0,0-.11,4.4c-.15.64-.29,1.27-.37,1.69,0-.07,0-.14,0-.21a36.84,36.84,0,0,0-.22-3.75C879.87,847.53,880.11,846.83,880.35,846.09Zm-2.6-7.89,0-.13v0c-.07.39-.12.69-.12.69Zm-.13-.11c0-.23.06-.45.09-.64v.05c-.09.73-.16,1.35-.17,1.42h0C877.55,838.85,877.58,838.53,877.62,838.09Zm.21.4a45.66,45.66,0,0,0,.89,5.69,23.55,23.55,0,0,1,.77,2.8l0,.17-.4,1.38a15.25,15.25,0,0,0-.63-3.33c-.27-.93-.72-2.52-1.12-3.94C877.5,840.22,877.67,839.31,877.83,838.49Zm-.51.87.05-.52c0,.11,0,.21,0,.31l-.06.42Zm0,.85.06-.41v.05l-.06.37Zm-.08,0-.06.45.06-.49Zm0-1.05v.33l-.06.91v-.12C877.15,840,877.17,839.6,877.19,839.17ZM877.1,838c0-.45,0-.92,0-1.34,0,.39,0,.9,0,1.43l0,.9c0-.31,0-.63,0-1Zm-.11,3.35,0,.16,0,.27S877,841.62,877,841.36Zm-.07-1.91,0,.46,0-.1C876.92,839.69,876.92,839.57,876.92,839.45Zm0,1.33,0,.22c0,.55,0,1,0,1l-.09.74S876.87,841.84,876.9,840.78Zm.25,1.42a26.24,26.24,0,0,0,.75,3.37,34.38,34.38,0,0,1,1,3.49l-.31,1.38a20.43,20.43,0,0,0-1.08-4.47l-.73-1.87C876.94,843.44,877,842.81,877.15,842.21Zm-.53.28,0,1.09v.09l-.07-.19C876.6,843.19,876.61,842.85,876.63,842.48Zm-.1,2h0v0Zm.14.53a16.58,16.58,0,0,0,.55,1.71c.56,1.34,1.31,4.13,1.31,4.13l-.38.83s-.14-.71-.41-1.67c-.13-.47-.73-2-1.3-3.52Zm-.33-.85c0,.43.06.77.07,1l-.12.7S876.32,845.21,876.33,844.21Zm-.14-1c0,.12,0,.23,0,.31,0,.54,0,1.29,0,1.87,0-.4,0-.91-.08-1.61l0-.83q0-.08,0-.15Zm0,4.67a9.74,9.74,0,0,0,.74,2.17,11.81,11.81,0,0,1,1.07,2.24l-.39,1.45a12.64,12.64,0,0,0-.74-3c-.2-.57-.5-1.28-.82-2Zm-.21-.27,0,.33c0-.28,0-.71,0-1.28l.08.35C876,847.39,876,847.64,876,847.64Zm-.16-5.88c0,1,.06,1.83.1,2.2l0,.21c0,.41,0,.75,0,.93s0,.17,0,.25l-.14-.35c0-1.06,0-2.43-.06-3.52Zm0,6.62,0,0v-.22Zm-.23-2.93c0,.22,0,.48.07.77,0,.46,0,1.26.05,1.93l-.09-.2c0-.15,0-.3,0-.46,0-.36,0-.72,0-1.08s0-.93-.06-1.41Zm.06,5.08,0,.11,0-.15Zm0-.42,0,.24s0-.19,0-.49h0Zm-.09.05c0,.34,0,.56,0,.56l0,.13-.05-.14v-.1Zm0-.64-.09.21v-.07c0-.13,0-.3,0-.49Zm-.1-5.05c0,.25,0,.5,0,.74l-.16-1.49Zm-.14,8.18v-.14l0,0Zm0-7c0,.19,0,.36,0,.5,0,.38.09.87.14,1.38l-.11-.24C875.33,846.73,875.3,846.16,875.28,845.64Zm1.29,10.77-1.21-2.78.1-.7c.41,1.06,1.15,3.28,1.15,3.28ZM876,852c-.09-.27-.18-.53-.27-.79l.13-.84c.08.21.15.41.23.58.75,1.78,1.19,3.11,1.19,3.11l-.4,1.57A17.27,17.27,0,0,0,876,852Zm2,6-.92-.54-.1-.23c.35-1.3,1.12-4.08,2.29-7.76a24.62,24.62,0,0,0-.15,2.85c.08.8.12,3.05.13,3.65Z" transform="translate(-362.4 -717.68)"/><path class="cls-2" d="M383.12,886.6a30.8,30.8,0,0,0,2.5-5.56s-3.92,1.11-5.3,3.77c-1.07,2.07-2,4.2-2,4.2l-1.09-3.82a7.83,7.83,0,0,0,4.42-4.22,15.64,15.64,0,0,0,1.69-6,8.33,8.33,0,0,0-4.89,3.79c-1.94,3.16-2,4.7-2,4.7l-2.75-5s3,1.3,2.9-1-3.06-1-3.06-1,2.7-2.08.58-3.26c-2.27-1.27-2.6,1.3-2.6,1.3s-1.38-2.94-3.31-1.87c-2.13,1.18.12,3.21.12,3.21s-2.81-1.1-2.65,1,3.5,1.36,3.5,1.36-2.89,1.23-1.55,2.32c1.54,1.26,2.62-.66,2.62-.66a1.51,1.51,0,0,0,1,1.87c1.86.54,1.54-2,1.54-2l1.6,3.51a11.1,11.1,0,0,0-7.8-.76,6.4,6.4,0,0,0-2.44,2.16,6.81,6.81,0,0,0,5.91,0c2.73-1.27,4.08-.23,4.08-.23l1.77,3.85a21.37,21.37,0,0,0-6.89-2.11c-5.64-.73-6.63.38-6.63.38s1.94,2.61,6.87,3c3,.22,7.22.3,7.22.3l0,2.77a7.06,7.06,0,0,0-4.61-1.8,6.77,6.77,0,0,0-3.75,1.42,5.87,5.87,0,0,0,3.76,1.67c3.54.38,4.33-.21,4.33-.21l-.6,2.8h3.9a6,6,0,0,0,3.24-2.62c2-3.2,1.42-5.33,1.42-5.33a26.13,26.13,0,0,0-3.64,3.18,10.62,10.62,0,0,0-2.44,4l.53-5.47A11.66,11.66,0,0,0,383.12,886.6Z" transform="translate(-362.4 -717.68)"/><path class="cls-5" d="M800.78,889.8c-12.78.88-27.36,3.83-32.26,6.69h76.14C834,891.29,818.24,890,818.24,890l.22-.65,2.49-7.45-9.58,7.62-.48.38-.21-.37-3.6-6.19-1,6.3,0,.23a11.62,11.62,0,0,1-2,0c-1.15-.09-3.51-2.55-4.6-2.54C799.42,887.34,801.35,889.76,800.78,889.8Z" transform="translate(-362.4 -717.68)"/><path class="cls-5" d="M621.74,878.8l.16-.69,1.78-7.91-6.85,8.08-.35.41-.15-.39-2.57-6.57-.74,6.68,0,.24h-5.67l-.44-3.73s2.89-1.74,3.87-3.8a17,17,0,0,0,1.48-7.34,15,15,0,0,0-3.6,4.45,19.21,19.21,0,0,0-2,4.76l-.58-4.85s1.93-1.16,2.51-6a29.16,29.16,0,0,0-.61-9.45s-3.13,4.58-3.76,8.65a21.07,21.07,0,0,0,0,6.63s-2.91-1.56-9-1.19a10.44,10.44,0,0,0-7.28,3.27,55.6,55.6,0,0,0,9-.09c3.77-.35,6.57-.33,6.57-.33l.08,6.61a10.28,10.28,0,0,0-7.53-2.19,10.94,10.94,0,0,0-5.43,2.82l13.12.73.05,1H575.65v-5.23l-6.54-.15v-3.85l-4.62-.38V864.8H556l-.38-26.5H563l.11-2.77-13.65-12-19.69-1.06-11-7.22V808l-4.62-.15v5.46l-11.93-7.13L475.7,831.32l-.09,3.85,7.64.21.61,43.27-26,2.58.86-5.34-5.48,4.94L450.75,877l-1.05,4.47-3.39-3.82.53,4.41-7.41,1.17c-.82-3.62.21-68.8.21-68.8l.89-8.37-1.23-.41s-.75-18.94.21-21.13,18.39-.55,20-.27,1.92-2.68,1-4-8.1-.21-8.1-.21,1.3-1.44,8.58-1.3,8-.21,8-.21.82-3.29,0-4-6.66-.07-6.66-.07a31.63,31.63,0,0,1,3.09-.69c.48,0,1.3-1.58,0-3-.81-.89-4.61.53-7.39,1.74a32,32,0,0,0,4.85-2.63c1-1-.27-1.44-2.26-1.85s-9.08,2.75-12,4.67a102.44,102.44,0,0,0-9.33,7.2s2.93-7.41,6.52-11.49,8.21-7.38,8.1-9.43c-.07-1.27-.38-2.09-1.54-2.06s-3.91,2.26-3.91,2.26,3.25-6.25,5-9.92c.79-1.65-3-3-5.39-2.57-2.08.39-5.42,8.37-6,8.23s.62-1.85.69-2.33-1.44-.62-2.74.75-1,9.88-1.72,9.81-.55-3.23-1.3-3.23-1.1.34-2.06,3.5,0,16,0,16l-1,.34s-5.28-9.13-10.64-14-10.5-7-11.94-6.38-1.1,1.1-1,2.61,4.12,2.61,4.12,2.61a63,63,0,0,0-6.52-1c-1.44,0-1.44,1.17-1.24,2.2s8.34,4.15,13.14,6.14,10.93,9,10,8.49a45.86,45.86,0,0,0-19-4,56.88,56.88,0,0,0-7.93.57c-1.44.21-3.65,3.09-2.23,4.13.77.56,8.37-.34,8.37-.34s-1.92.55-4.39,1.17-8.1,3.71-8.37,4.8,2.13,3,3.22,2.88,3.18-1.42,5.71-3.12c4.22-2.83,6.33-3.19,6.33-3.19s-3.05,3.16-3.26,4.19,2.47,1.65,3.36,1a46.69,46.69,0,0,1,3.6-3.19c1.37-.89,6.28-2.21,6.28-2.21s-2.4,2.52-3,3.14.07,2.2.62,2.2,1.85-1.51,3.36-2.81,5.76-.48,7.69,0,1.24,2.06,1.24,2.06.21,20.17,0,23.26c-.17,2.57-.92,56.06-1.16,73.8l-1.78.33-1-4.73c-.77-3.67-4.05-26.48-3.36-30.46s3.57-2.46,3.4-4.46S424.36,842,421,844s.26,9.31-.54,7.95-4.2-7.8-5.22-13.46c-.58-3.18.29-4.66.23-6.18s-5.42,0-6,3.82c-.5,3.32,2.49,8.16,2.49,8.16s-2.32-1.15-4.68-4.89c-3.85-6.1-2.76-9.81-5.24-7.07-1.89,2.09,2.24,11.16,2.24,11.16s-6.13-2.93-7.43-.61,1.48,3,3.86,3.78c3.12,1,5.41,5,5.41,5s-4.24-2.68-5-.57,9,7.64,9,7.64-6.92-2.56-8.89-3c-3-.64-3.18,2.71-.61,4s13.16,4.75,16.26,8.07c1.38,1.48,2.06,4.93,2.87,7.57.4,1.29,1.14,6.26,1.81,11l-1.63.3v-.06l-6,1c-1.68.25-14,2.31-15.14,8.94H644.67a12,12,0,0,0-2.08-7.26C636.78,879.7,621.74,878.8,621.74,878.8Zm-121.29.32h-4.73v-6.2h4.73Zm0-8.06h-4.73v-6.2h4.73Zm0-8.06h-4.73v-6.2h4.73Zm0-8.06h-4.73v-6.2h4.73Zm0-8.06h-4.73v-6.2h4.73Zm6.13,32.24h-4.73v-6.2h4.73Zm0-8.06h-4.73v-6.2h4.73Zm0-8.06h-4.73v-6.2h4.73Zm0-8.06h-4.73v-6.2h4.73Zm0-8.06h-4.73v-6.2h4.73Zm36.6,15h-4.73v-6.2h4.73Zm0-8.06h-4.73v-6.2h4.73Zm0-8.06h-4.73v-6.2h4.73Zm6.13,16.12h-4.73v-6.2h4.73Zm0-8.06h-4.73v-6.2h4.73Zm0-8.06h-4.73v-6.2h4.73Z" transform="translate(-362.4 -717.68)"/><path class="cls-5" d="M603.43,861.24a14.86,14.86,0,0,0-1.75-6.08,18,18,0,0,0-5.48-6.14s.47,4.57,2.57,7.46A37.37,37.37,0,0,0,603.43,861.24Z" transform="translate(-362.4 -717.68)"/></svg>