<svg id="Layer_1" data-name="Layer 1" xmlns="http://www.w3.org/2000/svg" viewBox="0 0 299.28 389.39"><defs><style>.cls-1{fill:#a5b3bd;}</style></defs><title>Locker-padlock</title><path class="cls-1" d="M424.05,348.44h-7.59V312.93c0-65.68-52.12-120.54-117.27-121.72-1.78,0-5.34,0-7.11,0-65.15,1.17-117.27,56-117.27,121.72v35.51h-7.59c-11.69,0-21.23,12.07-21.23,27V553.51c0,14.88,9.54,27.06,21.23,27.06H424.05c11.69,0,21.23-12.18,21.23-27.06V375.41c0-14.9-9.54-27-21.23-27ZM319.7,464.28V518.1a11.49,11.49,0,0,1-11.33,11.38H282.91a11.49,11.49,0,0,1-11.33-11.37V464.28a32,32,0,0,1-9.46-23c0-17.07,13.19-31.73,30-32.41,1.78-.07,5.34-.07,7.11,0,16.78.68,30,15.34,30,32.41a32,32,0,0,1-9.46,23Zm46.75-115.84H224.83V312.93c0-39.12,31.79-71.47,70.81-71.47s70.82,32.35,70.82,71.47Zm0,0" transform="translate(-146 -191.19)"/></svg>