<svg id="Capa_1" data-name="Capa 1" xmlns="http://www.w3.org/2000/svg" viewBox="0 0 512 500.54"><defs><style>.cls-1{fill:#a3e324;}</style></defs><title>logout</title><path class="cls-1" d="M358.64,117.07V30.75a25.09,25.09,0,0,0-25-25H25a25.09,25.09,0,0,0-25,25V384.39a25.47,25.47,0,0,0,13.34,22.1l190.16,98.42a12.62,12.62,0,0,0,18.35-11.26V397.73H333.62a25.09,25.09,0,0,0,25-25V235.93h-50v99.25a12.29,12.29,0,0,1-12.51,12.51H222.27V135.43a25.47,25.47,0,0,0-13.34-22.1L96.75,55.78H296.09A12.29,12.29,0,0,1,308.6,68.29V117.5h50Z" transform="translate(0 -5.73)"/><path class="cls-1" d="M422.86,76.2l81.32,81.32c10.43,10.43,10.43,25.86,0,36.28l-81.32,81.32c-10.43,10.43-26.28,10.85-36.7.42-10-10-8.76-26.69.84-36.7l36.69-36.28H281.49a24.67,24.67,0,0,1-18.77-8.34c-11.68-12.51-8.76-34.61,6.26-43a26.73,26.73,0,0,1,12.51-3.34h142.2S387.42,111.65,387,111.65c-9.6-9.59-10.85-26.69-.84-36.28C396.17,65.36,412.43,65.78,422.86,76.2Z" transform="translate(0 -5.73)"/></svg>