<svg id="Layer_1" data-name="Layer 1" xmlns="http://www.w3.org/2000/svg" viewBox="0 0 1045.09 309.34"><defs><style>.cls-1{fill:#0b9955;}.cls-2{fill:#fcfcfc;}.cls-3{fill:#fff;}.cls-4{fill:none;}.cls-5{fill:#194a85;}.cls-6{fill:#9ce214;}</style></defs><title>Logo_horizontal</title><path class="cls-1" d="M365.33,815.3a5.4,5.4,0,0,0,5.2,4.86l781.89,25.18a3.59,3.59,0,0,0,3.64-3.19l21.56-194.08a3.59,3.59,0,0,0-3.65-4L354,662.48a3.59,3.59,0,0,0-3.5,3.89Z" transform="translate(-132.55 -595.18)"/><path class="cls-2" d="M471.87,721.78c-5.69-9.1-15.2-9.85-25.27-9.85H420.22v63.15h21.69V755.42h12.58c12.9,0,20.91-7.83,20.91-20.44A24.49,24.49,0,0,0,471.87,721.78ZM445.4,741.06h-3.49V727.31h3.77c6,0,9.06,2.27,9.06,6.74S451.41,741.06,445.4,741.06Z" transform="translate(-132.55 -595.18)"/><polygon class="cls-2" points="370.36 155.72 390.4 155.72 390.4 140.62 370.36 140.62 370.36 132.9 392.07 132.9 392.07 116.96 350.44 116.96 350.44 180.11 392.72 180.11 392.72 164.18 370.36 164.18 370.36 155.72"/><path class="cls-2" d="M572.88,737.84a62.47,62.47,0,0,0-9.45-2.55l-1.26-.26c-1.9-.36-5.43-1-5.43-4.4,0-2.82,2.45-4.51,6.55-4.51,5.11,0,9.28,2.23,13.25,4.58l6-14.69c-7.58-3.49-13.92-5.63-21.5-5.63-12.48,0-25.92,7-25.92,22.48,0,7.8,4.16,13.47,11.72,16a68.68,68.68,0,0,0,9.48,2.18c2.1.4,5.7,1.08,5.7,4.58s-3.83,5.16-7.39,5.16c-5.79,0-11.29-3.5-15.53-6.44L532.51,770c9.38,4.82,16.8,6.79,25.4,6.79,8.24,0,14.15-2,19.15-6.65h0a20.68,20.68,0,0,0,7.22-15.83C584.3,746.4,580.46,740.87,572.88,737.84Z" transform="translate(-132.55 -595.18)"/><polygon class="cls-2" points="470.89 180.11 492.67 180.11 492.67 134.29 505.75 134.29 505.75 116.96 457.91 116.96 457.91 134.29 470.89 134.29 470.89 180.11"/><path class="cls-2" d="M690.63,743.71c0-8.1,5.84-14,13.88-14a19.7,19.7,0,0,1,12.65,4.72V712.95c-5.52-1.65-10.06-2.67-15.16-2.67-8.38,0-15.12,2.07-20.62,6.34-8.27,6.27-13,16.14-13,27.09,0,19.52,13.9,33.15,33.8,33.15a51.63,51.63,0,0,0,14.63-2.49l.81-21.32c-3.51,2.49-7.15,4.35-12.38,4.35C696.78,757.41,690.63,751.65,690.63,743.71Z" transform="translate(-132.55 -595.18)"/><path class="cls-2" d="M759.72,710.47c-20.12,0-34.17,13.67-34.17,33.25s14.32,33.15,34.82,33.15c19.9,0,33.8-13.79,33.8-33.52C794.17,724.29,779.68,710.47,759.72,710.47Zm0,47.13c-7.4,0-12.77-5.76-12.77-13.69,0-8.15,5.41-14.07,12.86-14.07s13,5.88,13,14S767.28,757.59,759.72,757.59Z" transform="translate(-132.55 -595.18)"/><polygon class="cls-2" points="670.01 116.96 670.01 180.11 690.39 180.11 690.39 146.22 712.79 180.11 733.72 180.11 733.72 116.96 713.33 116.96 713.33 151 690.57 116.96 670.01 116.96"/><polygon class="cls-2" points="753.7 180.11 775.48 180.11 775.48 134.29 788.55 134.29 788.55 116.96 740.71 116.96 740.71 134.29 753.7 134.29 753.7 180.11"/><path class="cls-2" d="M970.68,749.11c7.76-2.79,11.38-8,11.38-16.34a19,19,0,0,0-4-12.18c-6.08-7.8-15.21-8.45-24-8.45H928.09v63.15H948.2V747.53l14,27.76h22.63l-15.53-25.7ZM953,740.9H948.2V727.52h5.16c4.93,0,7.76,2.39,7.76,6.55C961.11,737.18,959.7,740.9,953,740.9Z" transform="translate(-132.55 -595.18)"/><path class="cls-2" d="M1022.87,710.47c-20.12,0-34.17,13.67-34.17,33.25s14.32,33.15,34.82,33.15c19.9,0,33.8-13.79,33.8-33.52C1057.32,724.29,1042.83,710.47,1022.87,710.47Zm0,47.13c-7.4,0-12.77-5.76-12.77-13.69,0-8.15,5.41-14.07,12.86-14.07s13,5.88,13,14S1030.43,757.59,1022.87,757.59Z" transform="translate(-132.55 -595.18)"/><polygon class="cls-2" points="954.75 116.96 932.98 116.96 932.98 180.11 975.35 180.11 975.35 161.03 954.75 161.03 954.75 116.96"/><polygon class="cls-3" points="10.1 38.48 20 239.32 87.55 280.24 121.12 298.83 194.81 266.29 234.97 231.64 245.03 87.2 245.03 38.48 152.81 15.23 126.03 8.72 63.72 27.32 10.1 38.48"/><path class="cls-1" d="M234.78,731.11a10,10,0,0,1-1.3,5.27l4-6.62a10,10,0,0,0,1.3-5.27c0-8.55-7.27-10.06-14.34-10.06H219.7l-4,6.62h4.71C227.51,721,234.74,722.56,234.78,731.11Z" transform="translate(-132.55 -595.18)"/><path class="cls-1" d="M240.62,765.27H219.93l-4,6.62h20.69A47.36,47.36,0,0,0,255,768.48a36.5,36.5,0,0,0,4.36-2.18q1-.61,2-1.28a33.07,33.07,0,0,0,3.69-2.93q.86-.79,1.67-1.65a32.75,32.75,0,0,0,4.27-5.65l4-6.62C268.44,759.14,256.31,765.27,240.62,765.27Z" transform="translate(-132.55 -595.18)"/><polygon class="cls-1" points="43.44 87.2 39.48 93.82 40.02 212.28 83.58 212.28 87.55 205.66 43.98 205.66 43.44 87.2"/><path class="cls-4" d="M311.66,720.3l.32-.14Z" transform="translate(-132.55 -595.18)"/><path class="cls-4" d="M313.86,719.51l.44-.13Z" transform="translate(-132.55 -595.18)"/><path class="cls-4" d="M316.13,718.94l.23-.05Z" transform="translate(-132.55 -595.18)"/><path class="cls-4" d="M309.74,721.22l.35-.18Z" transform="translate(-132.55 -595.18)"/><path class="cls-4" d="M318.44,718.59l.5,0Z" transform="translate(-132.55 -595.18)"/><path class="cls-4" d="M301.78,728.66l.25-.39Z" transform="translate(-132.55 -595.18)"/><path class="cls-4" d="M307.76,722.43l.33-.23Z" transform="translate(-132.55 -595.18)"/><path class="cls-4" d="M303.15,726.72l.12-.14Z" transform="translate(-132.55 -595.18)"/><polygon class="cls-4" points="188.61 123.27 188.61 123.27 188.61 123.27 188.61 123.27"/><path class="cls-4" d="M224.41,714.43H219.7l.09,20.63H224c7.06,0,14.79-2,14.75-10.57S231.47,714.43,224.41,714.43Z" transform="translate(-132.55 -595.18)"/><path class="cls-1" d="M340.86,725a37.26,37.26,0,0,0-4.47-2.77,34.5,34.5,0,0,0-3.16-1.46,32.94,32.94,0,0,0-3.3-1.13q-.84-.24-1.7-.43a32,32,0,0,0-7.09-.79h0c-.75,0-1.48,0-2.21.1l-.5,0c-.71.07-1.4.17-2.08.3l-.23.05c-.62.12-1.23.27-1.83.44l-.44.13c-.64.19-1.27.41-1.88.66l-.32.14q-.8.34-1.57.73l-.35.18q-.85.46-1.65,1l-.33.23q-.7.48-1.36,1l-.25.2c-.49.41-1,.84-1.4,1.28l-.31.32c-.41.43-.81.87-1.18,1.33l-.12.14c-.4.5-.77,1-1.12,1.56l-.25.39a22.29,22.29,0,0,0-2,3.94,22.6,22.6,0,0,1,17.38-7.53c9.76,0,18.35,4.37,25.11,11.25l4-6.62q-1.27-1.29-2.62-2.46T340.86,725Z" transform="translate(-132.55 -595.18)"/><path class="cls-5" d="M306.4,723.45q.66-.53,1.36-1Q307.06,722.92,306.4,723.45Z" transform="translate(-132.55 -595.18)"/><path class="cls-1" d="M322,681.64c-.05-4,.49-9,2.83-11.37a34.71,34.71,0,0,1,10.27-7c1.94-.94,3.22-1.55,3.49-2.8a6.81,6.81,0,0,0-.11-3.18c-.81-1-2.55-.47-3.9-.39-4,.24-9.17,5.28-12.26,10.13a27.6,27.6,0,0,0-4.25,14.44c-.56,0-1.12,0-1.69,0-2.08,0-4.15.08-6.19.23A27.56,27.56,0,0,0,306,667.83c-3.09-4.85-8.29-9.89-12.26-10.13-1.36-.08-3.15-.44-4,.55a6.29,6.29,0,0,0-.05,3c.27,1.24,1.55,1.86,3.49,2.79a34.73,34.73,0,0,1,10.27,7c2.36,2.35,2.86,7.11,2.84,10.88q-2.49.31-4.93.79h29.05A81.09,81.09,0,0,0,322,681.64Z" transform="translate(-132.55 -595.18)"/><path class="cls-6" d="M322.71,764.25c-13.46,0-24.43-8.72-24.49-22.65a24.84,24.84,0,0,1,1.6-9,22.29,22.29,0,0,1,2-3.94l.25-.39c.35-.54.72-1.06,1.12-1.56l.12-.14c.37-.46.77-.9,1.18-1.33l.31-.32c.45-.45.91-.88,1.4-1.28l.25-.2q.66-.53,1.36-1l.33-.23q.8-.53,1.65-1l.35-.18q.77-.4,1.57-.73l.32-.14c.61-.25,1.24-.46,1.88-.66l.44-.13c.6-.17,1.21-.32,1.83-.44l.23-.05c.68-.13,1.38-.22,2.08-.3l.5,0c.72-.06,1.46-.1,2.21-.1h0a32,32,0,0,1,7.09.79q.86.19,1.7.43a32.94,32.94,0,0,1,3.3,1.13,34.49,34.49,0,0,1,3.16,1.46,37.26,37.26,0,0,1,4.47,2.77q1.43,1,2.78,2.2t2.62,2.46l-.21-45.31c-8.12-2.46-15.8-4.46-24-5.12-.05-4,.49-9,2.83-11.37a34.71,34.71,0,0,1,10.27-7c1.94-.94,3.22-1.55,3.49-2.8a2.64,2.64,0,0,0-.7-2.19,3.82,3.82,0,0,0-3.31-1.38c-4,.24-9.17,5.28-12.26,10.13a27.6,27.6,0,0,0-4.25,14.44c-.56,0-1.12,0-1.69,0-2.08,0-4.15.08-6.19.23A27.56,27.56,0,0,0,306,665.46c-3.09-4.85-8.29-9.89-12.26-10.13a3.81,3.81,0,0,0-3.31,1.38,2.64,2.64,0,0,0-.7,2.19c.27,1.24,1.55,1.86,3.49,2.79a34.73,34.73,0,0,1,10.27,7c2.36,2.35,2.86,7.11,2.84,10.88-10.34,1.28-20,4.71-28.53,11.32a60.05,60.05,0,0,0-7,6.27c-11.13-13.69-27.7-14.84-44.85-14.84H176l.54,118.46h43.57l-.16-35.57h20.69A48.7,48.7,0,0,0,257,762.64c8.27,25,31.21,41,60.36,41,9.92,0,19.16-2.18,28.57-5l1.48-44.46C339.67,760.06,333,764.25,322.71,764.25ZM224,735.06h-4.2l-.09-20.63h4.71c7.06,0,14.3,1.51,14.34,10.06S231.06,735.06,224,735.06Z" transform="translate(-132.55 -595.18)"/><path class="cls-1" d="M253.63,741.61a64.84,64.84,0,0,1,9-33.7l-4,6.62a64.84,64.84,0,0,0-9,33.7c.17,36.75,27,62.08,63.7,62.08,9.92,0,19.16-2.18,28.57-5l4-6.62c-9.41,2.85-18.65,5-28.57,5C280.67,803.68,253.8,778.35,253.63,741.61Z" transform="translate(-132.55 -595.18)"/><path class="cls-4" d="M224.41,716H219.7l.09,20.63H224c7.06,0,14.79-2,14.75-10.57S231.47,716,224.41,716Z" transform="translate(-132.55 -595.18)"/><path class="cls-1" d="M259.54,611.45c11.59,4.14,40,14.06,56.14,17.53,11.29,2.44,38.92,7,55.57,9.67l-4.07,163.18a55.35,55.35,0,0,1-21.81,40.36l-85.79,44.95-85.51-44.93a55.36,55.36,0,0,1-21.74-40.31l-4.08-163.24c16.94-2.74,45.26-7.48,56.83-10.35,12.31-3.05,42.38-12.87,54.45-16.86m.21-16.28s-43.53,14.53-58.37,18.21c-16.19,4-68.84,12.2-68.84,12.2l4.42,177a70.89,70.89,0,0,0,28.89,52.66l93.73,49.25,94-49.25a70.89,70.89,0,0,0,29-52.72l4.42-177s-52-8.17-68-11.64c-19.31-4.16-59.17-18.77-59.17-18.77Z" transform="translate(-132.55 -595.18)"/><path class="cls-3" d="M1120.66,689.8a8.42,8.42,0,1,1-8.42,8.42,8.43,8.43,0,0,1,8.42-8.42m0-1.51a9.92,9.92,0,1,0,9.92,9.92,9.92,9.92,0,0,0-9.92-9.92Z" transform="translate(-132.55 -595.18)"/><path class="cls-3" d="M1120.86,701.76a2.6,2.6,0,0,0,2.58-1.86l1.79.67a4.28,4.28,0,0,1-1.69,2.11,5,5,0,0,1-2.67.69,4.83,4.83,0,0,1-3.65-1.34,6.1,6.1,0,0,1,0-7.44,4.77,4.77,0,0,1,3.61-1.29,5.14,5.14,0,0,1,2.81.69,3.66,3.66,0,0,1,1.52,2l-1.81.49a2.11,2.11,0,0,0-.9-1.17,2.84,2.84,0,0,0-1.58-.43,2.59,2.59,0,0,0-2.11.86,3.85,3.85,0,0,0-.72,2.52,3.94,3.94,0,0,0,.74,2.58A2.62,2.62,0,0,0,1120.86,701.76Z" transform="translate(-132.55 -595.18)"/></svg>