<svg id="Layer_1" data-name="Layer 1" xmlns="http://www.w3.org/2000/svg" xmlns:xlink="http://www.w3.org/1999/xlink" viewBox="0 0 212.95 280"><defs><style>.cls-1{fill:none;}.cls-2{clip-path:url(#clip-path);}.cls-3{fill:#a5b3bd;}</style><clipPath id="clip-path" transform="translate(-576 -244)"><rect class="cls-1" x="576" y="244" width="213" height="280"/></clipPath></defs><title>man-user</title><g class="cls-2"><path class="cls-3" d="M682.48,380.94c31.13,0,56.37-30.65,56.37-68.47S730.57,244,682.48,244s-56.37,30.66-56.37,68.47,25.24,68.47,56.37,68.47Zm0,0" transform="translate(-576 -244)"/><path d="M576,485.48c0-2.3,0-.65,0,0Zm0,0" transform="translate(-576 -244)"/></g><path class="cls-3" d="M788.83,482.72c-1-65.87-9.65-84.65-75.48-96.53,0,0-9.27,11.81-30.87,11.81s-30.87-11.81-30.87-11.81c-65.11,11.75-74.24,30.25-75.44,94.39-.1,5.24-.14,5.51-.16,4.9,0,1.14,0,3.25,0,6.92,0,0,15.67,31.6,106.46,31.6s106.46-31.6,106.46-31.6c0-2.36,0-4,0-5.12a45.32,45.32,0,0,1-.12-4.57Zm0,0" transform="translate(-576 -244)"/></svg>