<svg id="Layer_1" data-name="Layer 1" xmlns="http://www.w3.org/2000/svg" viewBox="0 0 750.66 567.02"><defs><style>.cls-1{fill:#0b9955;}.cls-2{fill:#fcfcfc;}.cls-3{fill:#fff;}.cls-4{fill:none;}.cls-5{fill:#194a85;}.cls-6{fill:#9ce214;}</style></defs><title>PC_Logo_login</title><path class="cls-1" d="M3739.3-1429.51a4.9,4.9,0,0,1-4.72,4.41L3025-1402.25a3.26,3.26,0,0,1-3.3-2.9l-19.57-176.13a3.26,3.26,0,0,1,3.31-3.62l744.15,16.7a3.26,3.26,0,0,1,3.17,3.53Z" transform="translate(-3002.12 1969.27)"/><path class="cls-2" d="M3112.29-1513.09c-5.16-8.26-13.79-8.94-22.93-8.94h-23.94v57.31h19.68v-17.85h11.42c11.7,0,19-7.11,19-18.55A22.22,22.22,0,0,0,3112.29-1513.09Zm-24,17.5h-3.17v-12.48h3.42c5.45,0,8.22,2.06,8.22,6.11S3093.73-1495.59,3088.26-1495.59Z" transform="translate(-3002.12 1969.27)"/><polygon class="cls-2" points="138.34 482.6 156.52 482.6 156.52 468.89 138.34 468.89 138.34 461.89 158.04 461.89 158.04 447.43 120.25 447.43 120.25 504.74 158.63 504.74 158.63 490.28 138.34 490.28 138.34 482.6"/><path class="cls-2" d="M3204-1498.51a56.7,56.7,0,0,0-8.57-2.31l-1.14-.24c-1.72-.33-4.93-.94-4.93-4,0-2.56,2.22-4.09,5.95-4.09,4.64,0,8.42,2,12,4.15l5.46-13.33c-6.88-3.17-12.63-5.11-19.51-5.11-11.33,0-23.52,6.39-23.52,20.41,0,7.08,3.78,12.22,10.64,14.48a62.33,62.33,0,0,0,8.6,2c1.9.36,5.18,1,5.18,4.16s-3.47,4.68-6.7,4.68c-5.26,0-10.25-3.17-14.1-5.84l-6,14.22c8.51,4.37,15.25,6.16,23.06,6.16,7.48,0,12.84-1.86,17.38-6h0a18.77,18.77,0,0,0,6.55-14.37C3214.32-1490.74,3210.83-1495.76,3204-1498.51Z" transform="translate(-3002.12 1969.27)"/><polygon class="cls-2" points="229.57 504.74 249.33 504.74 249.33 463.15 261.2 463.15 261.2 447.43 217.78 447.43 217.78 463.15 229.57 463.15 229.57 504.74"/><path class="cls-2" d="M3310.82-1493.18a12.22,12.22,0,0,1,12.6-12.68,17.87,17.87,0,0,1,11.48,4.29v-19.52a46.31,46.31,0,0,0-13.76-2.42c-7.6,0-13.72,1.88-18.71,5.75a30.42,30.42,0,0,0-11.8,24.59c0,17.72,12.61,30.09,30.68,30.09a46.86,46.86,0,0,0,13.28-2.26l.73-19.35c-3.19,2.26-6.49,4-11.23,4C3316.4-1480.76,3310.82-1486,3310.82-1493.18Z" transform="translate(-3002.12 1969.27)"/><path class="cls-2" d="M3373.52-1523.36c-18.26,0-31,12.41-31,30.17s13,30.09,31.6,30.09c18.06,0,30.68-12.51,30.68-30.42C3404.78-1510.81,3391.63-1523.36,3373.52-1523.36Zm0,42.77c-6.71,0-11.59-5.23-11.59-12.43,0-7.4,4.91-12.76,11.67-12.76s11.75,5.33,11.75,12.68S3380.38-1480.59,3373.52-1480.59Z" transform="translate(-3002.12 1969.27)"/><polygon class="cls-2" points="410.27 447.43 410.27 504.74 428.77 504.74 428.77 473.98 449.09 504.74 468.08 504.74 468.08 447.43 449.58 447.43 449.58 478.31 428.93 447.43 410.27 447.43"/><polygon class="cls-2" points="486.22 504.74 505.98 504.74 505.98 463.15 517.85 463.15 517.85 447.43 474.43 447.43 474.43 463.15 486.22 463.15 486.22 504.74"/><path class="cls-2" d="M3565-1488.29c7-2.53,10.33-7.25,10.33-14.83a17.28,17.28,0,0,0-3.65-11.05c-5.52-7.08-13.8-7.67-21.81-7.67h-23.52v57.31h18.25v-25.19l12.74,25.19h20.53l-14.09-23.32Zm-16.06-7.45h-4.34v-12.14h4.68c4.47,0,7,2.17,7,5.94C3556.29-1499.11,3555-1495.74,3548.91-1495.74Z" transform="translate(-3002.12 1969.27)"/><path class="cls-2" d="M3612.33-1523.36c-18.26,0-31,12.41-31,30.17s13,30.09,31.6,30.09c18.06,0,30.68-12.51,30.68-30.42C3643.6-1510.81,3630.45-1523.36,3612.33-1523.36Zm0,42.77c-6.71,0-11.59-5.23-11.59-12.43,0-7.4,4.91-12.76,11.67-12.76s11.75,5.33,11.75,12.68S3619.19-1480.59,3612.33-1480.59Z" transform="translate(-3002.12 1969.27)"/><polygon class="cls-2" points="668.68 447.43 648.91 447.43 648.91 504.74 687.37 504.74 687.37 487.42 668.68 487.42 668.68 447.43"/><polygon class="cls-3" points="210.09 54.29 224.07 337.67 319.37 395.4 366.74 421.64 470.71 375.72 527.37 326.83 541.56 123.03 541.56 54.29 411.45 21.49 373.66 12.31 285.74 38.55 210.09 54.29"/><path class="cls-1" d="M3342.22-1777.47a14.08,14.08,0,0,1-1.84,7.44l5.59-9.34a14.08,14.08,0,0,0,1.84-7.44c-.06-12.07-10.26-14.2-20.23-14.2h-6.65l-5.59,9.34H3322C3332-1791.67,3342.16-1789.54,3342.22-1777.47Z" transform="translate(-3002.12 1969.27)"/><path class="cls-1" d="M3350.45-1729.28h-29.19l-5.59,9.34h29.19a66.82,66.82,0,0,0,25.94-4.81,51.5,51.5,0,0,0,6.15-3.07q1.46-.86,2.85-1.81a46.66,46.66,0,0,0,5.21-4.14q1.22-1.12,2.36-2.33a46.22,46.22,0,0,0,6-8l5.59-9.34C3389.71-1737.93,3372.59-1729.28,3350.45-1729.28Z" transform="translate(-3002.12 1969.27)"/><polygon class="cls-1" points="257.13 123.03 251.54 132.37 252.31 299.51 313.78 299.51 319.37 290.17 257.89 290.17 257.13 123.03"/><path class="cls-4" d="M3450.69-1792.72l.45-.19Z" transform="translate(-3002.12 1969.27)"/><path class="cls-4" d="M3453.78-1793.84l.62-.18Z" transform="translate(-3002.12 1969.27)"/><path class="cls-4" d="M3457-1794.64l.33-.07Z" transform="translate(-3002.12 1969.27)"/><path class="cls-4" d="M3448-1791.43l.5-.25Z" transform="translate(-3002.12 1969.27)"/><path class="cls-4" d="M3460.25-1795.13l.71-.06Z" transform="translate(-3002.12 1969.27)"/><path class="cls-4" d="M3436.74-1780.93l.35-.54Z" transform="translate(-3002.12 1969.27)"/><path class="cls-4" d="M3445.18-1789.71l.47-.32Z" transform="translate(-3002.12 1969.27)"/><path class="cls-4" d="M3438.68-1783.67l.16-.19Z" transform="translate(-3002.12 1969.27)"/><polygon class="cls-4" points="461.95 173.93 461.95 173.93 461.95 173.93 461.95 173.93"/><path class="cls-4" d="M3327.58-1801h-6.65l.13,29.11H3327c10,0,20.87-2.84,20.81-14.91S3337.54-1801,3327.58-1801Z" transform="translate(-3002.12 1969.27)"/><path class="cls-1" d="M3491.88-1786a52.57,52.57,0,0,0-6.3-3.91,48.68,48.68,0,0,0-4.46-2.06,46.48,46.48,0,0,0-4.65-1.59q-1.19-.34-2.39-.61a45.18,45.18,0,0,0-10-1.11h0c-1.06,0-2.09.06-3.11.14l-.71.06c-1,.1-2,.24-2.94.42l-.33.07c-.88.17-1.74.39-2.58.63l-.62.18c-.9.27-1.79.58-2.65.93l-.45.19q-1.14.48-2.22,1l-.5.25q-1.2.65-2.33,1.39l-.47.32q-1,.68-1.92,1.43l-.35.28c-.69.57-1.34,1.18-2,1.81l-.43.45c-.58.6-1.14,1.23-1.67,1.88l-.16.19c-.56.71-1.08,1.44-1.58,2.2l-.35.54a31.46,31.46,0,0,0-2.77,5.56c5.77-6.6,14.35-10.63,24.52-10.63,13.76,0,25.89,6.17,35.43,15.87l5.59-9.34q-1.79-1.82-3.7-3.47T3491.88-1786Z" transform="translate(-3002.12 1969.27)"/><path class="cls-5" d="M3443.26-1788.28q.93-.75,1.92-1.43Q3444.19-1789,3443.26-1788.28Z" transform="translate(-3002.12 1969.27)"/><path class="cls-1" d="M3465.33-1847.28c-.07-5.71.69-12.73,4-16a49,49,0,0,1,14.49-9.94c2.74-1.32,4.54-2.19,4.93-3.94.33-1.49.17-4.09-.15-4.49-1.14-1.39-3.59-.66-5.51-.55-5.59.34-12.93,7.45-17.29,14.29a38.94,38.94,0,0,0-6,20.37c-.8,0-1.58-.07-2.39-.07-2.94,0-5.85.11-8.74.32a38.89,38.89,0,0,0-6-19.44c-4.36-6.85-11.7-14-17.29-14.29-1.92-.11-4.44-.62-5.59.77-.32.4-.4,2.78-.07,4.27.39,1.75,2.19,2.62,4.93,3.94a49,49,0,0,1,14.49,9.94c3.33,3.32,4,10,4,15.34q-3.52.43-7,1.12h41A114.42,114.42,0,0,0,3465.33-1847.28Z" transform="translate(-3002.12 1969.27)"/><path class="cls-6" d="M3466.27-1730.71c-19,0-34.47-12.3-34.56-32a35.05,35.05,0,0,1,2.25-12.71,31.46,31.46,0,0,1,2.77-5.56l.35-.54c.5-.76,1-1.5,1.58-2.2l.16-.19c.53-.65,1.09-1.27,1.67-1.88l.43-.45c.63-.63,1.29-1.24,2-1.81l.35-.28q.93-.75,1.92-1.43l.47-.32q1.13-.74,2.33-1.39l.5-.25q1.08-.56,2.22-1l.45-.19c.86-.35,1.74-.65,2.65-.93l.62-.18c.84-.24,1.7-.45,2.58-.63l.33-.07c1-.18,1.94-.31,2.94-.42l.71-.06c1-.09,2.05-.14,3.11-.14h0a45.18,45.18,0,0,1,10,1.11q1.21.27,2.39.61a46.48,46.48,0,0,1,4.65,1.59,48.67,48.67,0,0,1,4.46,2.06,52.57,52.57,0,0,1,6.3,3.91q2,1.46,3.93,3.11t3.7,3.47l-.29-63.93c-11.45-3.48-22.29-6.3-33.89-7.23-.07-5.71.69-12.73,4-16a49,49,0,0,1,14.49-9.94c2.74-1.32,4.54-2.19,4.93-3.94a3.72,3.72,0,0,0-1-3.08,5.39,5.39,0,0,0-4.67-2c-5.59.34-12.93,7.45-17.29,14.29a38.94,38.94,0,0,0-6,20.37c-.8,0-1.58-.07-2.39-.07-2.94,0-5.85.11-8.74.32a38.89,38.89,0,0,0-6-19.44c-4.36-6.85-11.7-14-17.29-14.29a5.38,5.38,0,0,0-4.67,2,3.72,3.72,0,0,0-1,3.08c.39,1.75,2.19,2.62,4.93,3.94a49,49,0,0,1,14.49,9.94c3.33,3.32,4,10,4,15.34-14.59,1.8-28.25,6.64-40.26,16a84.73,84.73,0,0,0-9.9,8.85c-15.7-19.32-39.09-20.93-63.28-20.93h-70.49l.77,167.14h61.47l-.23-50.18h29.19a68.72,68.72,0,0,0,23.08-3.71c11.67,35.31,44,57.92,85.17,57.92,14,0,27-3.08,40.31-7.1l2.09-62.73C3490.21-1736.63,3480.75-1730.71,3466.27-1730.71ZM3327-1771.9h-5.93l-.13-29.11h6.65c10,0,20.17,2.13,20.23,14.2S3337-1771.9,3327-1771.9Z" transform="translate(-3002.12 1969.27)"/><path class="cls-1" d="M3368.81-1762.66a91.49,91.49,0,0,1,12.63-47.55l-5.59,9.34a91.49,91.49,0,0,0-12.63,47.55c.24,51.85,38.14,87.59,89.88,87.59,14,0,27-3.08,40.31-7.1l5.59-9.34c-13.28,4-26.31,7.1-40.31,7.1C3407-1675.07,3369.05-1710.81,3368.81-1762.66Z" transform="translate(-3002.12 1969.27)"/><path class="cls-4" d="M3327.58-1798.75h-6.65l.13,29.11H3327c10,0,20.87-2.84,20.81-14.91S3337.54-1798.75,3327.58-1798.75Z" transform="translate(-3002.12 1969.27)"/><path class="cls-1" d="M3377.15-1946.3c16.36,5.85,56.49,19.84,79.2,24.74,15.93,3.44,54.91,9.86,78.41,13.64L3529-1677.68a78.09,78.09,0,0,1-30.77,56.94l-121,63.42-120.65-63.4a78.1,78.1,0,0,1-30.68-56.88l-5.75-230.32c23.9-3.86,63.86-10.55,80.19-14.6,17.37-4.31,59.79-18.16,76.82-23.79m.3-23s-61.42,20.5-82.35,25.69c-22.84,5.67-97.13,17.22-97.13,17.22l6.24,249.76a100,100,0,0,0,40.76,74.3l132.24,69.49,132.63-69.49a100,100,0,0,0,40.87-74.38l6.23-249.68s-73.31-11.52-96-16.42c-27.25-5.88-83.48-26.49-83.48-26.49Z" transform="translate(-3002.12 1969.27)"/><circle class="cls-4" cx="695.37" cy="437.9" r="6.08"/><path class="cls-3" d="M3697.49-1539.37a8,8,0,0,0-8,8,8,8,0,0,0,8,8,8,8,0,0,0,8-8A8,8,0,0,0,3697.49-1539.37Zm-6.08,8a6.09,6.09,0,0,1,6.08-6.08,6.09,6.09,0,0,1,6.08,6.08,6.09,6.09,0,0,1-6.08,6.08A6.09,6.09,0,0,1,3691.41-1531.36Z" transform="translate(-3002.12 1969.27)"/><path class="cls-3" d="M3697.66-1528.5a2.1,2.1,0,0,0,2.08-1.5l1.44.54a3.45,3.45,0,0,1-1.36,1.7,4,4,0,0,1-2.16.56,3.9,3.9,0,0,1-2.95-1.08,4.17,4.17,0,0,1-1-3,4.14,4.14,0,0,1,1-3,3.85,3.85,0,0,1,2.91-1,4.15,4.15,0,0,1,2.26.56,3,3,0,0,1,1.23,1.64l-1.46.4a1.7,1.7,0,0,0-.73-.94,2.29,2.29,0,0,0-1.28-.35,2.09,2.09,0,0,0-1.7.69,3.11,3.11,0,0,0-.58,2,3.18,3.18,0,0,0,.6,2.08A2.11,2.11,0,0,0,3697.66-1528.5Z" transform="translate(-3002.12 1969.27)"/></svg>