<svg id="Layer_1" data-name="Layer 1" xmlns="http://www.w3.org/2000/svg" viewBox="0 0 512 512"><defs><style>.cls-1{fill:#a3e324;}</style></defs><title>user</title><path class="cls-1" d="M256,0C114.62,0,0,114.62,0,256S114.62,512,256,512,512,397.37,512,256,397.38,0,256,0Zm.78,376.77H145.86c0-80,70.23-79.95,85.82-100.86l1.78-9.54c-21.9-11.1-37.35-37.85-37.35-69.14,0-41.22,26.82-74.65,59.89-74.65s59.89,33.42,59.89,74.65c0,31-15.18,57.61-36.79,68.88l2,10.84c17.1,19.9,85,21.19,85,99.82Z" transform="translate(0)"/></svg>